<?xml version="1.0" encoding="UTF-8"?> <svg xmlns="http://www.w3.org/2000/svg" width="159" height="45" viewBox="0 0 159 45"><defs><style>.a{opacity:0.2;}</style></defs><g class="a" transform="translate(-379.007 -250.623)"><g transform="translate(379.007 250.623)"><g transform="translate(54.071 6.943)"><path d="M637.1,297.77q.577-1.96,1.154-3.919c.492-1.679.976-3.361,1.476-5.038a1.988,1.988,0,0,1,2.213-1.654q1.3,0,2.6,0a1.951,1.951,0,0,1,2.094,1.556c.815,2.756,1.617,5.516,2.425,8.273a2.3,2.3,0,0,0,.361.793c.132-.421.271-.841.4-1.264q1.1-3.694,2.186-7.39a2.352,2.352,0,0,1,2.626-1.968c.932,0,1.864,0,2.8,0,.785,0,1.118.359.925,1.125-.246.979-.575,1.938-.884,2.9q-2.127,6.627-4.265,13.251a2.241,2.241,0,0,1-2.374,1.713q-1.036,0-2.073,0a2.282,2.282,0,0,1-2.369-1.732q-1.486-4.708-2.965-9.419c-.052-.166-.114-.329-.221-.635-.1.273-.162.422-.21.575q-1.492,4.731-2.985,9.463a2.275,2.275,0,0,1-2.4,1.748c-.707,0-1.414,0-2.121,0a2.221,2.221,0,0,1-2.276-1.649q-2.317-7.173-4.618-14.352c-.157-.489-.326-.976-.463-1.47a2.779,2.779,0,0,1-.107-.758.666.666,0,0,1,.74-.756c1.141-.013,2.283-.026,3.423.005a2.175,2.175,0,0,1,2.112,1.667q1.264,4.222,2.512,8.449c.049.164.1.325.157.488Z" transform="translate(-592.223 -280.919)"></path><path d="M583.214,303.978c-.3.186-.545.337-.788.484a10.179,10.179,0,0,1-5.914,1.39,10.387,10.387,0,0,1-3.929-.865,5.532,5.532,0,0,1-3.473-5.3,5.465,5.465,0,0,1,3.775-5.235,10.5,10.5,0,0,1,3.96-.715c1.783,0,3.567-.013,5.351.007.453.005.584-.135.536-.588-.237-2.211-1.148-3.056-3.388-3.07a5.088,5.088,0,0,0-2.561.558,3.139,3.139,0,0,0-.818.657,2.518,2.518,0,0,1-2,.891c-.755,0-1.51,0-2.266,0-.889,0-1.3-.484-1.233-1.384a4.1,4.1,0,0,1,2.674-3.634,12.275,12.275,0,0,1,4.069-.922,17.833,17.833,0,0,1,5.8.275,6.868,6.868,0,0,1,4.807,3.534,7.421,7.421,0,0,1,.756,3.4q0,5.42,0,10.839c0,.855-.348,1.2-1.2,1.206-.932.005-1.864,0-2.8,0-.955,0-1.259-.291-1.317-1.246C583.255,304.195,583.24,304.133,583.214,303.978Zm-3.444-6.322v.026c-.883,0-1.768-.04-2.647.012a2.158,2.158,0,0,0-1.974,1.246,2.019,2.019,0,0,0,1.551,2.852,8.025,8.025,0,0,0,5.857-1.344.617.617,0,0,0,.187-.451c.021-.625-.005-1.251.014-1.876.011-.361-.137-.476-.484-.47C581.439,297.668,580.6,297.657,579.769,297.657Z" transform="translate(-554.57 -280.273)"></path><path d="M772.1,304.73c-.585-.073-1.08-.116-1.567-.2a6.171,6.171,0,0,1-3.918-2.429,14.876,14.876,0,0,1-2.353-4.773c-.934-2.988-1.823-5.991-2.724-8.989-.221-.736.1-1.165.857-1.171,1.093-.009,2.186-.006,3.279,0a1.652,1.652,0,0,1,1.7,1.283c.816,2.672,1.615,5.349,2.447,8.016a9.09,9.09,0,0,0,1.471,3.015,2.549,2.549,0,0,0,1.464.952c.372.085.548-.008.653-.393q1.443-5.3,2.915-10.588c.1-.372.2-.744.31-1.114a1.52,1.52,0,0,1,1.565-1.171q1.616-.007,3.231,0c.823,0,1.156.42.942,1.2-1.543,5.637-3.06,11.281-4.66,16.9a19.677,19.677,0,0,1-1.569,3.767,5.892,5.892,0,0,1-5.564,3.335c-1.521-.015-3.043-.19-4.558-.347a1.1,1.1,0,0,1-1.092-1.269c0-.562-.01-1.125,0-1.687A.985.985,0,0,1,766.025,308a19.3,19.3,0,0,1,2.2.228,2.759,2.759,0,0,0,2.652-.91A5.91,5.91,0,0,0,772.1,304.73Z" transform="translate(-677.508 -280.927)"></path><path d="M528.859,285.572c0-2.731-.058-5.463.029-8.191a11.489,11.489,0,0,1,.624-3.244,5.815,5.815,0,0,1,4.564-3.8,22.315,22.315,0,0,1,7.1-.335c.607.05,1.214.134,1.815.241a1.153,1.153,0,0,1,1.082,1.3c0,.53.011,1.06,0,1.59a1.04,1.04,0,0,1-1.175,1.15,9.629,9.629,0,0,1-1.628-.139,10.274,10.274,0,0,0-4.3.163c-1.361.32-2,1.158-2.207,2.757-.061.477-.058.962-.106,1.441-.044.433.11.594.563.588,1.784-.021,3.569-.01,5.353-.008.95,0,1.278.328,1.283,1.271,0,.579.01,1.157,0,1.735a1.045,1.045,0,0,1-1.177,1.152c-1.816.006-3.633.015-5.449-.006-.44-.005-.577.127-.575.572.016,3.325.009,6.651.008,9.976,0,1.007-.317,1.323-1.326,1.324q-1.591,0-3.183,0c-.984,0-1.31-.32-1.311-1.291q0-4.121,0-8.241Z" transform="translate(-528.828 -269.874)"></path><path d="M724.83,288.66c.53-.355.937-.638,1.353-.906a10.8,10.8,0,0,1,6.167-1.57.978.978,0,0,1,1.034,1.04c.023.883.025,1.767,0,2.65a.971.971,0,0,1-1.071,1.048,23.054,23.054,0,0,1-2.407-.085,5.164,5.164,0,0,0-4.082,1.473,2.764,2.764,0,0,0-1.016,2.332c.07,3.179.027,6.361.025,9.542,0,1.022-.331,1.347-1.362,1.347-1.109,0-2.219,0-3.328,0a1.028,1.028,0,0,1-1.16-1.157q-.006-8.337,0-16.675a1.026,1.026,0,0,1,1.159-1.156q1.784-.009,3.569,0a1.019,1.019,0,0,1,1.12,1.1C724.838,287.943,724.83,288.244,724.83,288.66Z" transform="translate(-650.351 -280.3)"></path></g><g transform="translate(0 0)"><path d="M417.39,257.16c.415,4.716-1.2,9.737-2.289,12.492a.685.685,0,0,1-1.312-.134l-.694-3.985-5.141,1.6a.684.684,0,0,1-.823-.945,38.047,38.047,0,0,0,2.439-6.978,12.829,12.829,0,0,0-.382-7.246,22.505,22.505,0,0,0-23.015,37.624,15.5,15.5,0,0,0,8.568-4.625c5.516-5.422,6.781-8.4,6.781-8.4l-2.364-1.575a1.18,1.18,0,0,1,.266-2.1l10.4-3.622a1.182,1.182,0,0,1,1.56.961l1.545,11.769a.67.67,0,0,1-.965.686l-3.031-1.514s-5.17,9.408-14.206,13.417a22.505,22.505,0,0,0,22.66-37.421Z" transform="translate(-379.007 -250.623)"></path></g></g></g></svg> 