<?xml version="1.0" encoding="UTF-8"?> <svg xmlns="http://www.w3.org/2000/svg" width="115" height="45" viewBox="0 0 115 45"><defs><style>.a{opacity:0.2;}</style></defs><g class="a"><g transform="translate(51.009 7.441)"><path d="M183.4,48.236V28.677a1.489,1.489,0,0,1,2.978,0V48.236a1.476,1.476,0,0,1-1.475,1.5A1.5,1.5,0,0,1,183.4,48.236Z" transform="translate(-183.4 -27.2)"></path><path d="M216.677,56.277V71.1a6.213,6.213,0,0,1-6.2,6.182,6.141,6.141,0,0,1-5.547-3.474,1.516,1.516,0,0,1,.683-2,1.457,1.457,0,0,1,1.94.684,3.274,3.274,0,0,0,2.924,1.805,3.238,3.238,0,0,0,3.251-3.228V68.916a5.874,5.874,0,0,1-3.088.848,6.05,6.05,0,0,1-6.038-5.991v-7.5a1.475,1.475,0,1,1,2.951,0v7.441a3.088,3.088,0,1,0,6.175,0V56.277a1.475,1.475,0,1,1,2.951,0Z" transform="translate(-198.808 -47.25)"></path><path d="M273.982,61.85V67.9a1.489,1.489,0,1,1-2.978,0V61.85a4.563,4.563,0,1,0-9.126,0V67.9a1.489,1.489,0,1,1-2.978,0V61.85a7.541,7.541,0,1,1,15.082,0Z" transform="translate(-238.271 -46.887)"></path><path d="M335.994,49.3a1.368,1.368,0,0,1-.929.356,1.449,1.449,0,0,1-1.148-.547l-5.711-6.839-.929.629v5.252a1.5,1.5,0,0,1-1.5,1.5,1.476,1.476,0,0,1-1.476-1.5V28.677a1.47,1.47,0,0,1,1.476-1.477,1.494,1.494,0,0,1,1.5,1.477v10.7l6.8-4.486a1.486,1.486,0,1,1,1.885,2.3l-5.246,3.447,5.465,6.593A1.477,1.477,0,0,1,335.994,49.3Z" transform="translate(-285.802 -27.2)"></path><path d="M389.737,64.769a4.635,4.635,0,0,1-5,4.514c-2.1,0-4.563-.93-5.383-3.036a1,1,0,0,1-.055-.41,1.555,1.555,0,0,1,1.53-1.477,1.518,1.518,0,0,1,1.148.574,3.148,3.148,0,0,0,2.7,1.423c1.913,0,2.077-1.313,2.1-1.559,0-1.012-1.038-1.45-2.486-1.587-1.831-.219-4.973-1.2-4.973-4.514,0-2.872,2.432-4.6,5.082-4.6a6.6,6.6,0,0,1,2.869.684c.3.137,2.486,1.149,2.486,2.982a1.593,1.593,0,0,1-1.53,1.45c-.71,0-1.011-.492-1.393-1.012-.41-.848-1.694-1.122-2.514-1.122-1.12,0-2.077.629-2.077,1.641,0,2.161,3.251.739,5.738,2.681A4.569,4.569,0,0,1,389.737,64.769Z" transform="translate(-325.774 -46.741)"></path></g><path d="M119,.3V13.732h12.4C130.448,2.078,122.06.491,119,.3Z" transform="translate(-86.485 -0.218)"></path><path d="M118.9,57.308c.137-.027.246-.027.383-.055a5.732,5.732,0,0,0,3.8-3.173l-4.153-2.38Z" transform="translate(-86.413 -37.557)"></path><path d="M30.848,26.248h-.383a3.7,3.7,0,0,1-.546-.055A10.988,10.988,0,0,1,23.225,7.482c.027-.027.055-.055.055-.082-.328.164-.628.328-.929.492-.027.027-.055.027-.082.055a14.1,14.1,0,0,0-1.639,1.067l-.027.027a17.663,17.663,0,0,0-1.94,1.723.027.027,0,0,1-.027.027,12.048,12.048,0,0,0-.956,1.176V12A13.1,13.1,0,0,0,16.64,13.61h0a9.821,9.821,0,0,0-.464.93h0a8.679,8.679,0,0,0-.383,1.012h0a3.58,3.58,0,0,0-.109.383l-.109.246-.027-.027H15.52L13.279,14.9l-1.257-.711-.41-.219-.027-.027L6.12,10.874,3.388,9.342,2.213,8.686H2.186L2.049,8.6H2.022L0,7.427H0v.055A20.786,20.786,0,0,0,3.2,18.7a1.7,1.7,0,0,0,.246.328c.027.027.055.055.055.082a7.355,7.355,0,0,0,.628.766H4.1L0,19.464H0v.055c.055.137.082.3.137.438v.027c.082.164.137.328.191.465v.027a3.041,3.041,0,0,0,.191.438h0c.082.164.137.3.219.438h0a14.17,14.17,0,0,0,1.995,2.872h0c.109.109.219.246.328.356h0c.109.109.219.246.328.356l.027.027.3.3.055.055.273.274a.377.377,0,0,0,.109.082,1.65,1.65,0,0,1,.219.219.725.725,0,0,0,.164.137.725.725,0,0,0,.164.137c.082.082.164.137.219.191L5,26.44a20.284,20.284,0,0,0,2.7,2H7.65L3.5,28.6h0l.027.027a1.033,1.033,0,0,1,.137.219l.027.027a1.19,1.19,0,0,1,.109.191h0c.055.082.109.137.164.219,0,.027.027.027.027.055l.164.246c.027.027.027.055.055.082a1.5,1.5,0,0,0,.191.246L4.481,30c.055.082.137.164.191.246.027.027.055.082.082.109.082.082.137.164.219.246.027.055.082.082.109.137l.246.246.137.137.273.274.137.137a2.993,2.993,0,0,0,.3.274c.055.055.109.082.164.137.109.082.219.191.328.274.055.055.109.082.164.137a4.671,4.671,0,0,0,.383.3c.055.027.109.082.164.109.137.109.3.219.464.328a.377.377,0,0,0,.109.082c.191.137.41.274.6.383h0l.027.027a14.5,14.5,0,0,0,9.181,2,14.807,14.807,0,0,0,10.574-5.881c-.355.547-.71,1.067-1.093,1.559q-.451.574-.9,1.067c-.464.492-.929.957-1.393,1.368a15.263,15.263,0,0,1-2.432,1.723c-.328.191-.656.356-1.011.52a17.669,17.669,0,0,1-10.164,1.286c-.082,0-.137-.027-.219-.027a25.525,25.525,0,0,1-3.033-.711,4.088,4.088,0,0,1-.546-.191.1.1,0,0,1-.055-.027l.027-.055h0c-.273.657-.492,1.176-.492,1.176h0l-1.94,4.76-3.2,7.714h0c.164.055.3.082.437.137.109.027.219.055.3.082l.41.082a1.409,1.409,0,0,0,.3.055c.137.027.246.027.383.055.109.027.191.027.3.055a1.328,1.328,0,0,1,.328.027c.109,0,.219.027.3.027h.6c.082,0,.164-.027.246-.027.109,0,.191-.027.3-.027.082-.027.164-.027.219-.055.109-.027.191-.027.3-.055a1.332,1.332,0,0,0,.191-.082,1.141,1.141,0,0,0,.273-.109,1.333,1.333,0,0,1,.191-.082,1.275,1.275,0,0,0,.273-.137l.164-.082a1.107,1.107,0,0,1,.246-.137c.055-.027.082-.055.137-.082a1.5,1.5,0,0,0,.246-.191c.027-.027.082-.055.109-.082a1.769,1.769,0,0,0,.246-.219L8.5,48.9a1.65,1.65,0,0,0,.219-.219A.378.378,0,0,0,8.8,48.57c.082-.082.137-.164.219-.246.027-.055.055-.082.082-.137l.164-.246a.207.207,0,0,0,.055-.109c.055-.082.109-.191.164-.274a.208.208,0,0,0,.055-.109c.055-.082.109-.191.164-.274l.082-.164c.027-.082.082-.137.109-.219a1.334,1.334,0,0,1,.082-.191,1.334,1.334,0,0,0,.082-.191c.027-.055.055-.137.082-.191s.055-.137.082-.191a11.048,11.048,0,0,0,.656-2.872c.519.027,1.038.027,1.53.027a2.065,2.065,0,0,0,.41-.027c.355,0,.71-.027,1.038-.055a3.008,3.008,0,0,0,.492-.055,8.478,8.478,0,0,0,.874-.109l.492-.082c.273-.055.546-.082.792-.137.164-.027.328-.082.492-.109a7.315,7.315,0,0,0,.738-.191c.164-.055.3-.082.464-.137.246-.082.464-.137.683-.219.137-.055.3-.109.437-.164.219-.082.437-.191.683-.274.137-.055.273-.109.383-.164l.656-.328.328-.164c.246-.137.492-.274.738-.438.055-.027.137-.082.191-.109a15.827,15.827,0,0,0,1.694-1.231c.082-.055.137-.137.219-.191.191-.164.355-.328.546-.492L25,38.257l.464-.465c.082-.082.164-.191.246-.274.137-.164.273-.3.41-.465a1.917,1.917,0,0,0,.219-.274,5.26,5.26,0,0,0,.355-.465c.082-.082.137-.191.219-.274l.328-.492c.055-.082.137-.191.191-.274.109-.164.219-.328.328-.52a2.406,2.406,0,0,0,.164-.274,5.427,5.427,0,0,0,.3-.547c.027-.082.082-.137.109-.219.109-.219.246-.465.355-.684,0-.027.027-.055.055-.082.137-.274.246-.52.355-.793a.1.1,0,0,1,.027-.055,7.131,7.131,0,0,0,.273-.684c.027-.082.055-.137.082-.219.055-.164.137-.356.191-.52l.082-.246c.055-.164.109-.3.164-.465L30,29.722c.055-.137.082-.3.137-.438l.082-.246c.027-.137.082-.274.109-.41a.8.8,0,0,0,.055-.246c.027-.137.055-.246.082-.383.027-.082.027-.137.055-.219.027-.137.055-.246.082-.383,0-.055.027-.137.027-.191.027-.137.055-.246.082-.383,0-.055.027-.082.027-.137.027-.164.055-.3.082-.438v-.027h0C30.93,26.248,30.9,26.248,30.848,26.248Z" transform="translate(0 -5.376)"></path><path d="M16.1,4.814,21.56,7.878l.027.027,3.935,2.216.574-6.1a.282.282,0,0,0-.3-.3l-1.94.027V3.528A2.818,2.818,0,0,0,20.987.738a2.714,2.714,0,0,0-1.8.711,2.8,2.8,0,0,0-5.055,1.723v.191H13.5Zm4.918-3.447a2.159,2.159,0,0,1,2.213,2.161v.219h-.956l-.383-.383a.31.31,0,0,0-.219-.082l-1.94.027V3.09A2.557,2.557,0,0,0,19.484,2,2.322,2.322,0,0,1,21.014,1.367Zm-1.94,1.258a2.412,2.412,0,0,1,.055.465v.219h-.246A1.964,1.964,0,0,1,19.074,2.625ZM16.915.929a2.176,2.176,0,0,1,1.858.985,2.8,2.8,0,0,0-.519,1.4l-3.5.055V3.172A2.2,2.2,0,0,1,16.915.929Z" transform="translate(-9.811 -0.218)"></path><path d="M84.049.52A9.869,9.869,0,0,0,77.3,9.9a10.075,10.075,0,0,0,1.011,4.35,9.876,9.876,0,0,0,8.416,5.526h.82l.027-.328V.082h0V0h-.137A24.476,24.476,0,0,0,84.049.52Zm-.765,12.255a2.954,2.954,0,1,1,2.951-2.954A2.958,2.958,0,0,1,83.284,12.775Z" transform="translate(-56.179)"></path><path d="M113.7,73.7Z" transform="translate(-82.634 -53.539)"></path></g></svg> 