<?xml version="1.0" encoding="UTF-8"?> <svg xmlns="http://www.w3.org/2000/svg" width="145" height="44" viewBox="0 0 145 44"><defs><style>.a{opacity:0.2;}.b{fill-rule:evenodd;}</style></defs><g class="a"><g transform="translate(20.355 26.549)"><path class="b" d="M321.126,427.715c-8.425,6.261-20.639,9.59-31.156,9.59a56.159,56.159,0,0,1-38.059-14.62c-.79-.717-.086-1.7.862-1.141a76.193,76.193,0,0,0,38.081,10.174,75.325,75.325,0,0,0,29.048-5.985C321.326,425.124,322.52,426.678,321.126,427.715Z" transform="translate(-251.57 -419.854)"></path><path class="b" d="M315.474,423.917c-1.078-1.388-7.122-.657-9.839-.33-.822.1-.95-.624-.209-1.148,4.824-3.41,12.725-2.427,13.643-1.284s-.243,9.13-4.762,12.937c-.7.585-1.356.272-1.047-.5C314.277,431.033,316.553,425.307,315.474,423.917Z" transform="translate(-242.412 -420.087)"></path></g><path class="b" d="M305.858,402.289v-3.314a.817.817,0,0,1,.835-.84h14.752a.825.825,0,0,1,.851.836v2.842a4.688,4.688,0,0,1-1.111,2.087l-7.642,10.985a16.27,16.27,0,0,1,8.414,1.819A1.517,1.517,0,0,1,322.74,418v3.536c0,.487-.53,1.051-1.087.758a16.884,16.884,0,0,0-15.586.029c-.513.275-1.05-.28-1.05-.769V418.19a4.019,4.019,0,0,1,.549-2.277l8.853-12.789h-7.708A.824.824,0,0,1,305.858,402.289Z" transform="translate(-222.044 -397.483)"></path><path class="b" d="M260.582,423.054h-4.489a.849.849,0,0,1-.8-.765l0-23.192a.849.849,0,0,1,.866-.835h4.181a.847.847,0,0,1,.815.78v3.027h.085a5.923,5.923,0,0,1,5.906-4.3c2.806,0,4.567,1.367,5.822,4.3a6.607,6.607,0,0,1,11.4-1.758c1.425,1.953,1.132,4.783,1.132,7.273l0,14.636a.849.849,0,0,1-.866.835h-4.481a.845.845,0,0,1-.805-.833l0-12.3a29.836,29.836,0,0,0-.125-4.343,2.342,2.342,0,0,0-2.638-2,2.977,2.977,0,0,0-2.682,1.9,14.131,14.131,0,0,0-.42,4.442v12.294a.849.849,0,0,1-.865.835h-4.483a.846.846,0,0,1-.806-.833l0-12.3c0-2.586.418-6.393-2.765-6.393-3.225,0-3.1,3.709-3.1,6.393v12.294A.85.85,0,0,1,260.582,423.054Z" transform="translate(-230.576 -397.548)"></path><path class="b" d="M332.083,397.772c6.66,0,10.264,5.759,10.264,13.081,0,7.076-3.979,12.689-10.264,12.689-6.535,0-10.1-5.761-10.1-12.933C321.986,403.385,325.589,397.772,332.083,397.772Zm.041,4.735c-3.31,0-3.518,4.537-3.518,7.369s-.042,8.882,3.477,8.882c3.477,0,3.644-4.881,3.644-7.857a21.586,21.586,0,0,0-.67-6.15A2.812,2.812,0,0,0,332.124,402.507Z" transform="translate(-219.132 -397.548)"></path><path class="b" d="M347.511,423.054h-4.472a.846.846,0,0,1-.8-.833l-.007-23.2a.852.852,0,0,1,.863-.757h4.162a.855.855,0,0,1,.8.649v3.549h.085c1.257-3.174,3.014-4.686,6.115-4.686a5.869,5.869,0,0,1,5.236,2.733c1.173,1.855,1.173,4.978,1.173,7.224v14.595a.853.853,0,0,1-.86.73h-4.5a.849.849,0,0,1-.8-.73V409.731c0-2.539.293-6.248-2.807-6.248a2.938,2.938,0,0,0-2.6,1.853,10.394,10.394,0,0,0-.712,4.395v12.487A.862.862,0,0,1,347.511,423.054Z" transform="translate(-215.659 -397.548)"></path><path class="b" d="M305.626,418.837a6.193,6.193,0,0,1-1.694-4.188v-7.038c0-2.985.211-5.724-1.973-7.779-1.721-1.663-4.575-2.25-6.759-2.25-4.271,0-9.036,1.606-10.036,6.918a.8.8,0,0,0,.669.946l4.35.474a.953.953,0,0,0,.779-.832,3.422,3.422,0,0,1,3.608-2.713,2.989,2.989,0,0,1,2.519,1.174,5.82,5.82,0,0,1,.547,3.277v.587c-2.6.294-6,.489-8.439,1.566a7.676,7.676,0,0,0-4.786,7.386c0,4.694,2.938,7.043,6.717,7.043,3.191,0,4.936-.758,7.4-3.285a11.024,11.024,0,0,0,2.573,3.012.925.925,0,0,0,1.06-.1l.01.009c.9-.8,2.525-2.227,3.441-3A.856.856,0,0,0,305.626,418.837Zm-7.99-6.826a8.918,8.918,0,0,1-.841,4.795,3.646,3.646,0,0,1-3.106,2.054c-1.721,0-2.728-1.321-2.728-3.277,0-3.85,3.428-4.549,6.676-4.549Z" transform="translate(-225.579 -397.582)"></path><path class="b" d="M255.411,418.837a6.192,6.192,0,0,1-1.693-4.188v-7.038c0-2.985.209-5.724-1.974-7.779-1.721-1.663-4.576-2.25-6.759-2.25-4.272,0-9.037,1.606-10.036,6.918a.8.8,0,0,0,.67.946l4.349.474a.953.953,0,0,0,.78-.832,3.421,3.421,0,0,1,3.607-2.713,2.99,2.99,0,0,1,2.519,1.174,5.828,5.828,0,0,1,.545,3.277v.587c-2.6.294-6,.489-8.437,1.566a7.676,7.676,0,0,0-4.786,7.386c0,4.694,2.939,7.043,6.717,7.043,3.191,0,4.935-.758,7.4-3.285a10.962,10.962,0,0,0,2.572,3.012.925.925,0,0,0,1.06-.1l.011.009c.9-.8,2.525-2.227,3.442-3A.857.857,0,0,0,255.411,418.837Zm-7.992-6.826a8.929,8.929,0,0,1-.839,4.795,3.646,3.646,0,0,1-3.107,2.054c-1.721,0-2.728-1.321-2.728-3.277,0-3.85,3.429-4.549,6.674-4.549Z" transform="translate(-234.196 -397.582)"></path></g></svg> 