<?xml version="1.0" encoding="UTF-8"?> <svg xmlns="http://www.w3.org/2000/svg" viewBox="0 0 223 182" width="223" height="182"><style> tspan { white-space:pre } .shp0 { fill: #ff0000 } .shp1 { fill: #000000 } </style><g id="Layer"><g id="Layer"><path id="Layer" class="shp0" d="M101.81 114.82L88.23 104.45C87.95 104.24 87.73 103.96 87.57 103.64C87.42 103.33 87.34 102.98 87.35 102.63C87.35 102.28 87.44 101.93 87.6 101.62C87.76 101.31 88 101.04 88.28 100.83L112.13 83.6L112.13 93.56L130.7 93.56C131.21 93.56 131.71 93.66 132.18 93.86C132.65 94.05 133.07 94.33 133.43 94.69C133.79 95.05 134.07 95.47 134.27 95.94C134.46 96.4 134.56 96.9 134.56 97.41L134.56 107.81C134.56 108.32 134.46 108.82 134.27 109.28C134.07 109.75 133.79 110.17 133.43 110.53C133.07 110.89 132.64 111.17 132.18 111.36C131.71 111.56 131.21 111.65 130.7 111.65L112.13 111.65L112.13 115.51"></path></g><g id="Layer"><path id="Layer" class="shp1" d="M89.11 35.99L85.52 35.99C84.84 35.98 84.2 35.7 83.72 35.22C83.25 34.73 82.98 34.09 82.98 33.41C82.98 32.73 83.25 32.09 83.72 31.6C84.2 31.12 84.84 30.84 85.52 30.83L89.11 30.83C89.79 30.84 90.43 31.12 90.91 31.6C91.38 32.09 91.65 32.73 91.65 33.41C91.65 34.09 91.38 34.73 90.91 35.22C90.43 35.7 89.79 35.98 89.11 35.99L89.11 35.99Z"></path></g><g id="Layer"><path id="Layer" class="shp1" d="M153.38 150.08L68.53 150.08C66.23 150.08 63.95 149.63 61.82 148.75C59.7 147.87 57.77 146.59 56.14 144.97C54.51 143.35 53.22 141.43 52.34 139.32C51.46 137.21 51 134.94 51 132.65L51 48.26C51 45.97 51.46 43.71 52.34 41.59C53.22 39.48 54.51 37.56 56.14 35.94C57.77 34.32 59.7 33.04 61.82 32.16C63.95 31.29 66.23 30.83 68.53 30.83L79.03 30.83C79.71 30.84 80.35 31.12 80.83 31.6C81.3 32.09 81.57 32.73 81.57 33.41C81.57 34.09 81.3 34.73 80.83 35.22C80.35 35.7 79.71 35.98 79.03 35.99L68.53 35.99C66.91 35.99 65.3 36.31 63.81 36.93C62.31 37.54 60.95 38.45 59.81 39.59C58.66 40.73 57.75 42.08 57.13 43.57C56.51 45.05 56.19 46.65 56.19 48.26L56.19 132.65C56.19 134.26 56.51 135.86 57.13 137.35C57.75 138.83 58.66 140.19 59.81 141.33C60.95 142.46 62.31 143.37 63.81 143.99C65.3 144.6 66.91 144.92 68.53 144.92L153.38 144.92C155 144.92 156.61 144.6 158.1 143.99C159.6 143.37 160.96 142.46 162.1 141.33C163.25 140.19 164.16 138.83 164.78 137.35C165.4 135.86 165.72 134.26 165.72 132.65L165.72 48.26C165.72 46.65 165.4 45.05 164.78 43.57C164.16 42.08 163.25 40.73 162.1 39.59C160.96 38.45 159.6 37.54 158.1 36.93C156.6 36.31 155 35.99 153.38 35.99L103.1 35.99C103.03 35.99 102.96 36 102.89 36.03C102.83 36.06 102.77 36.1 102.72 36.14C102.67 36.19 102.63 36.25 102.61 36.32C102.58 36.38 102.56 36.45 102.56 36.52L102.56 64.62L109.22 58.68C109.46 58.47 109.73 58.31 110.03 58.2C110.32 58.08 110.64 58.02 110.95 58.02C111.27 58.02 111.59 58.08 111.88 58.2C112.18 58.31 112.45 58.47 112.69 58.68L119.35 64.62L119.35 41.32C119.36 40.64 119.64 40 120.12 39.53C120.61 39.05 121.26 38.79 121.94 38.79C122.62 38.79 123.27 39.05 123.75 39.53C124.24 40 124.52 40.64 124.53 41.32L124.53 67.04C124.53 67.83 124.3 68.6 123.87 69.26C123.44 69.92 122.83 70.44 122.1 70.76C121.38 71.08 120.58 71.19 119.8 71.07C119.02 70.94 118.29 70.6 117.7 70.07L110.95 64.07L104.21 70.07C103.62 70.6 102.89 70.94 102.11 71.07C101.33 71.19 100.53 71.08 99.8 70.76C99.08 70.44 98.47 69.92 98.04 69.26C97.61 68.6 97.38 67.83 97.38 67.04L97.38 36.52C97.38 35.77 97.53 35.03 97.81 34.34C98.1 33.65 98.52 33.03 99.05 32.5C99.59 31.97 100.22 31.55 100.91 31.27C101.6 30.98 102.35 30.83 103.1 30.83L153.38 30.83C155.68 30.83 157.96 31.29 160.09 32.16C162.21 33.04 164.14 34.32 165.77 35.94C167.4 37.56 168.69 39.48 169.57 41.59C170.45 43.71 170.91 45.97 170.91 48.26L170.91 132.65C170.91 134.94 170.45 137.21 169.57 139.32C168.69 141.43 167.4 143.35 165.77 144.97C164.14 146.59 162.21 147.87 160.09 148.75C157.96 149.63 155.68 150.08 153.38 150.08L153.38 150.08Z"></path></g><g id="Layer"><g id="Layer"><path id="Layer" class="shp1" d="M112.13 118.1C111.79 118.1 111.46 118.03 111.14 117.9C110.83 117.77 110.54 117.58 110.3 117.34C110.06 117.1 109.87 116.82 109.74 116.5C109.61 116.19 109.54 115.86 109.54 115.52L109.54 111.65C109.54 111.31 109.61 110.98 109.74 110.67C109.87 110.35 110.06 110.07 110.3 109.83C110.54 109.59 110.83 109.4 111.14 109.27C111.46 109.14 111.79 109.07 112.14 109.07L130.7 109.07C130.87 109.07 131.03 109.04 131.19 108.98C131.34 108.91 131.48 108.82 131.6 108.7C131.71 108.59 131.81 108.45 131.87 108.29C131.94 108.14 131.97 107.98 131.97 107.81L131.97 97.41C131.97 97.24 131.94 97.08 131.87 96.92C131.81 96.77 131.72 96.63 131.6 96.51C131.48 96.4 131.34 96.3 131.19 96.24C131.03 96.18 130.87 96.14 130.7 96.14L124.41 96.14C123.71 96.16 123.04 95.89 122.54 95.41C122.04 94.92 121.76 94.26 121.76 93.56C121.76 92.87 122.04 92.21 122.54 91.72C123.04 91.24 123.71 90.97 124.41 90.98L130.7 90.98C131.55 90.99 132.39 91.15 133.17 91.48C133.95 91.8 134.66 92.27 135.26 92.87C135.86 93.46 136.34 94.17 136.66 94.95C136.99 95.73 137.16 96.56 137.16 97.41L137.16 107.81C137.16 108.65 136.99 109.49 136.66 110.27C136.34 111.05 135.86 111.75 135.26 112.35C134.66 112.95 133.95 113.42 133.17 113.74C132.39 114.06 131.55 114.23 130.7 114.23L114.73 114.23L114.73 115.52C114.73 115.86 114.66 116.19 114.53 116.5C114.4 116.82 114.21 117.1 113.97 117.34C113.73 117.58 113.44 117.77 113.13 117.9C112.81 118.03 112.48 118.1 112.13 118.1L112.13 118.1Z"></path></g><path id="Layer" class="shp1" d="M120.46 93.83C120.41 94.15 120.31 94.46 120.15 94.75C119.99 95.03 119.78 95.29 119.53 95.5C119.28 95.71 119 95.88 118.69 95.99C118.38 96.09 118.05 96.15 117.73 96.14L112.14 96.14C111.8 96.14 111.46 96.08 111.15 95.95C110.83 95.82 110.54 95.63 110.3 95.39C110.06 95.15 109.87 94.86 109.74 94.55C109.61 94.24 109.54 93.9 109.55 93.56L109.54 88.66L90.16 102.66L102.29 111.93C102.56 112.13 102.79 112.39 102.96 112.68C103.13 112.98 103.24 113.3 103.28 113.64C103.33 113.97 103.31 114.31 103.22 114.64C103.13 114.97 102.98 115.27 102.77 115.54L102.77 115.54C102.56 115.81 102.31 116.04 102.01 116.21C101.72 116.38 101.39 116.49 101.05 116.53C100.71 116.58 100.37 116.55 100.04 116.47C99.71 116.38 99.4 116.23 99.13 116.02L86.66 106.5C86.06 106.04 85.57 105.45 85.24 104.77C84.91 104.1 84.74 103.35 84.75 102.6C84.76 101.84 84.95 101.1 85.29 100.43C85.64 99.77 86.14 99.19 86.75 98.74L110.6 81.51C110.99 81.23 111.45 81.06 111.93 81.03C112.4 80.99 112.88 81.09 113.3 81.3C113.73 81.52 114.09 81.85 114.34 82.25C114.59 82.66 114.72 83.12 114.72 83.6L114.72 90.98L117.88 90.98C118.24 90.98 118.6 91.06 118.93 91.21C119.26 91.35 119.56 91.57 119.8 91.84C120.04 92.11 120.23 92.42 120.34 92.76C120.45 93.11 120.49 93.47 120.46 93.83Z"></path></g><g id="Layer"><path id="Layer" fill-rule="evenodd" class="shp1" d="M80.16 50.03C80.21 50.06 80.26 50.09 80.31 50.14C80.35 50.18 80.39 50.23 80.42 50.28C80.45 50.33 80.48 50.39 80.5 50.45C80.51 50.5 80.52 50.57 80.52 50.63L80.52 56C80.52 56.06 80.51 56.12 80.5 56.18C80.48 56.24 80.45 56.29 80.42 56.35C80.39 56.4 80.35 56.45 80.31 56.49C80.26 56.53 80.21 56.57 80.16 56.59L74.36 59.71C74.3 59.74 74.24 59.77 74.18 59.78C74.12 59.8 74.06 59.81 73.99 59.81C73.93 59.81 73.87 59.8 73.81 59.78C73.75 59.77 73.69 59.74 73.63 59.71L67.82 56.58C67.76 56.56 67.71 56.52 67.66 56.48C67.62 56.43 67.58 56.39 67.55 56.33C67.52 56.28 67.49 56.22 67.48 56.16C67.46 56.1 67.45 56.04 67.45 55.98L67.45 50.63C67.45 50.57 67.46 50.51 67.48 50.45C67.49 50.39 67.52 50.33 67.55 50.28C67.58 50.23 67.62 50.18 67.67 50.14C67.71 50.1 67.76 50.06 67.81 50.03L73.6 46.93C73.66 46.89 73.72 46.86 73.79 46.84C73.86 46.82 73.93 46.81 74 46.81C74.07 46.81 74.14 46.82 74.21 46.84C74.28 46.86 74.34 46.89 74.41 46.93L80.16 50.03ZM68.88 50.56L74 53.31L79.11 50.56L74 47.81L68.88 50.56ZM71.95 53.31L68.44 51.42L68.44 55.2L71.95 53.31ZM79.11 56.06L75.02 53.86L74.34 54.23C74.29 54.26 74.23 54.28 74.17 54.29C74.12 54.31 74.06 54.31 74 54.31C73.94 54.31 73.88 54.31 73.82 54.29C73.77 54.28 73.71 54.26 73.66 54.23L72.98 53.86L68.88 56.06L74 58.81L79.11 56.06ZM79.53 55.19L79.53 51.43L76.04 53.31L79.53 55.19Z"></path><path id="Layer" fill-rule="evenodd" class="shp1" d="M74 60.07C73.96 60.07 73.91 60.07 73.87 60.06C73.83 60.06 73.79 60.05 73.75 60.04C73.71 60.03 73.67 60.01 73.63 60C73.59 59.98 73.55 59.97 73.51 59.95L67.69 56.82C67.62 56.78 67.55 56.73 67.49 56.67C67.43 56.61 67.37 56.54 67.33 56.47C67.29 56.4 67.25 56.32 67.23 56.24C67.21 56.16 67.2 56.07 67.19 55.99L67.19 50.63C67.2 50.55 67.21 50.46 67.23 50.38C67.25 50.3 67.29 50.22 67.33 50.15C67.37 50.08 67.43 50.01 67.49 49.95C67.55 49.89 67.62 49.84 67.69 49.8L73.51 46.68L73.52 46.67L73.52 46.67C73.6 46.63 73.68 46.6 73.76 46.58C73.85 46.56 73.93 46.56 74.02 46.56C74.1 46.56 74.19 46.57 74.27 46.6C74.35 46.62 74.43 46.65 74.51 46.69L74.53 46.7L80.28 49.8C80.36 49.84 80.43 49.89 80.49 49.95C80.55 50 80.6 50.07 80.65 50.14C80.69 50.22 80.73 50.29 80.75 50.38C80.77 50.46 80.78 50.54 80.78 50.63L80.78 56C80.78 56.08 80.77 56.17 80.75 56.25C80.73 56.33 80.69 56.41 80.65 56.48C80.6 56.55 80.55 56.62 80.49 56.68C80.43 56.73 80.36 56.78 80.28 56.82L74.48 59.94C74.45 59.96 74.41 59.98 74.37 60C74.33 60.01 74.29 60.03 74.25 60.04C74.21 60.05 74.17 60.05 74.12 60.06C74.08 60.06 74.04 60.07 74 60.07ZM73.66 47.18L67.94 50.26C67.91 50.28 67.88 50.3 67.85 50.32C67.82 50.35 67.8 50.38 67.78 50.41C67.76 50.45 67.74 50.48 67.73 50.52C67.72 50.56 67.71 50.59 67.71 50.63L67.71 55.99C67.71 56.02 67.72 56.06 67.73 56.1C67.74 56.14 67.76 56.17 67.78 56.21C67.8 56.24 67.82 56.27 67.85 56.3C67.88 56.32 67.91 56.34 67.94 56.36L73.76 59.49C73.79 59.51 73.83 59.53 73.87 59.54C73.91 59.55 73.96 59.55 74 59.55C74.04 59.55 74.08 59.55 74.12 59.54C74.16 59.53 74.2 59.51 74.24 59.49L80.04 56.37C80.07 56.35 80.1 56.33 80.13 56.31C80.16 56.28 80.18 56.25 80.2 56.22C80.22 56.18 80.24 56.15 80.25 56.11C80.26 56.07 80.27 56.04 80.27 56L80.27 50.62C80.27 50.59 80.26 50.55 80.25 50.51C80.24 50.47 80.22 50.44 80.2 50.41C80.18 50.37 80.16 50.34 80.13 50.32C80.1 50.29 80.07 50.27 80.04 50.25L74.27 47.14C74.23 47.12 74.18 47.1 74.14 47.09C74.09 47.08 74.05 47.07 74 47.07C73.95 47.07 73.91 47.08 73.86 47.09C73.82 47.1 73.77 47.12 73.73 47.14L73.66 47.18ZM74 59.11L68.34 56.06L72.98 53.57L73.78 54C73.82 54.02 73.85 54.03 73.89 54.04C73.92 54.05 73.96 54.05 74 54.05C74.04 54.05 74.07 54.05 74.11 54.04C74.15 54.03 74.18 54.02 74.22 54L75.02 53.57L79.66 56.06L74 59.11ZM69.43 56.06L74 58.52L78.57 56.06L75.02 54.15L74.46 54.45C74.39 54.49 74.32 54.52 74.24 54.54C74.16 54.56 74.08 54.57 74 54.57C73.92 54.57 73.84 54.56 73.76 54.54C73.68 54.52 73.61 54.49 73.54 54.45L72.98 54.15L69.43 56.06ZM68.18 55.63L68.18 50.99L72.5 53.31L68.18 55.63ZM68.7 51.85L68.7 54.77L71.41 53.31L68.7 51.85ZM79.79 55.62L75.5 53.31L79.79 51L79.79 55.62ZM76.59 53.31L79.28 54.75L79.28 51.87L76.59 53.31ZM74 53.6L68.34 50.56L74 47.51L79.66 50.56L74 53.6ZM69.43 50.56L74 53.02L78.57 50.56L74 48.1L69.43 50.56Z"></path></g><g id="Layer"><path id="Layer" class="shp1" d="M94.4 149.59C94.13 149.59 93.86 149.54 93.6 149.43C93.35 149.33 93.12 149.18 92.93 148.99C92.74 148.79 92.59 148.57 92.48 148.32C92.38 148.07 92.32 147.8 92.32 147.53L92.32 140.66C92.32 140.12 92.54 139.59 92.93 139.2C93.32 138.82 93.85 138.6 94.4 138.6C94.95 138.6 95.48 138.82 95.87 139.2C96.25 139.59 96.47 140.12 96.47 140.66L96.47 147.53C96.47 147.8 96.42 148.07 96.32 148.32C96.21 148.57 96.06 148.79 95.87 148.99C95.67 149.18 95.44 149.33 95.19 149.43C94.94 149.54 94.67 149.59 94.4 149.59L94.4 149.59Z"></path></g><g id="Layer"><path id="Layer" class="shp1" d="M101.02 149.59C100.75 149.59 100.48 149.54 100.23 149.43C99.98 149.33 99.75 149.18 99.55 148.99C99.36 148.79 99.21 148.57 99.1 148.32C99 148.07 98.95 147.8 98.95 147.53L98.95 140.66C98.95 140.12 99.16 139.59 99.55 139.2C99.94 138.82 100.47 138.6 101.02 138.6C101.57 138.6 102.1 138.82 102.49 139.2C102.88 139.59 103.1 140.12 103.1 140.66L103.1 147.53C103.1 147.8 103.04 148.07 102.94 148.32C102.83 148.57 102.68 148.79 102.49 148.99C102.3 149.18 102.07 149.33 101.81 149.43C101.56 149.54 101.29 149.59 101.02 149.59Z"></path></g><g id="Layer"><path id="Layer" class="shp1" d="M107.64 149.59C107.37 149.59 107.1 149.54 106.85 149.43C106.6 149.33 106.37 149.18 106.18 148.99C105.98 148.79 105.83 148.57 105.73 148.32C105.62 148.07 105.57 147.8 105.57 147.53L105.57 140.66C105.57 140.12 105.79 139.59 106.18 139.2C106.56 138.82 107.09 138.6 107.64 138.6C108.19 138.6 108.72 138.82 109.11 139.2C109.5 139.59 109.72 140.12 109.72 140.66L109.72 147.53C109.72 147.8 109.66 148.07 109.56 148.32C109.46 148.57 109.3 148.79 109.11 148.99C108.92 149.18 108.69 149.33 108.44 149.43C108.19 149.54 107.92 149.59 107.64 149.59L107.64 149.59Z"></path></g><g id="Layer"><path id="Layer" class="shp1" d="M114.26 149.59C113.99 149.59 113.72 149.54 113.47 149.43C113.22 149.33 112.99 149.18 112.8 148.99C112.61 148.79 112.45 148.57 112.35 148.32C112.24 148.07 112.19 147.8 112.19 147.53L112.19 140.66C112.19 140.12 112.41 139.59 112.8 139.2C113.19 138.82 113.71 138.6 114.26 138.6C114.82 138.6 115.34 138.82 115.73 139.2C116.12 139.59 116.34 140.12 116.34 140.66L116.34 147.53C116.34 147.8 116.29 148.07 116.18 148.32C116.08 148.57 115.92 148.79 115.73 148.99C115.54 149.18 115.31 149.33 115.06 149.43C114.81 149.54 114.54 149.59 114.26 149.59L114.26 149.59Z"></path></g><g id="Layer"><path id="Layer" class="shp1" d="M120.89 149.59C120.62 149.59 120.35 149.54 120.09 149.43C119.84 149.33 119.61 149.18 119.42 148.99C119.23 148.79 119.08 148.57 118.97 148.32C118.87 148.07 118.81 147.8 118.81 147.53L118.81 140.66C118.81 140.12 119.03 139.59 119.42 139.2C119.81 138.82 120.34 138.6 120.89 138.6C121.44 138.6 121.97 138.82 122.36 139.2C122.74 139.59 122.96 140.12 122.96 140.66L122.96 147.53C122.96 147.8 122.91 148.07 122.8 148.32C122.7 148.57 122.55 148.79 122.35 148.99C122.16 149.18 121.93 149.33 121.68 149.43C121.43 149.54 121.16 149.59 120.89 149.59Z"></path></g><g id="Layer"><path id="Layer" class="shp1" d="M127.51 149.59C127.24 149.59 126.97 149.54 126.72 149.43C126.46 149.33 126.23 149.18 126.04 148.99C125.85 148.79 125.7 148.57 125.59 148.32C125.49 148.07 125.43 147.8 125.43 147.53L125.43 140.66C125.43 140.12 125.65 139.59 126.04 139.2C126.43 138.82 126.96 138.6 127.51 138.6C128.06 138.6 128.59 138.82 128.98 139.2C129.37 139.59 129.58 140.12 129.58 140.66L129.58 147.53C129.58 147.8 129.53 148.07 129.43 148.32C129.32 148.57 129.17 148.79 128.98 148.99C128.78 149.18 128.55 149.33 128.3 149.43C128.05 149.54 127.78 149.59 127.51 149.59Z"></path></g></g></svg> 