<?xml version="1.0" encoding="UTF-8"?> <svg xmlns="http://www.w3.org/2000/svg" viewBox="0 0 223 182" width="223" height="182"><style> tspan { white-space:pre } .shp0 { fill: #ff0000 } .shp1 { fill: #000000 } </style><g id="Layer"><g id="Layer"><g id="Layer"><path id="Layer" class="shp0" d="M58.38 98.86L66.99 98.86C70.09 98.86 72.59 101.37 72.59 104.46L72.59 147.32C72.59 150.41 70.09 152.92 66.99 152.92L58.38 152.92C55.29 152.92 52.79 150.41 52.79 147.32L52.79 104.46C52.79 101.37 55.29 98.86 58.38 98.86Z"></path></g><g id="Layer"><path id="Layer" class="shp1" d="M119.06 148.65L88.66 148.65C87.92 148.65 87.21 148.36 86.69 147.84C86.16 147.31 85.87 146.61 85.87 145.87C85.87 145.13 86.16 144.42 86.69 143.89C87.21 143.37 87.92 143.08 88.66 143.08L119.06 143.08C119.86 143.08 120.66 143.02 121.46 142.91C122.25 142.79 123.04 142.62 123.81 142.39C124.58 142.17 125.33 141.88 126.06 141.55C126.79 141.21 127.5 140.83 128.17 140.39L163.97 117.25C164.76 116.74 165.41 116.04 165.88 115.23C166.34 114.41 166.61 113.5 166.65 112.56C166.69 111.62 166.51 110.69 166.12 109.83C165.72 108.98 165.14 108.23 164.4 107.65C163.92 107.27 163.38 106.97 162.8 106.75C162.23 106.54 161.62 106.42 161.01 106.39C160.39 106.36 159.78 106.43 159.19 106.59C158.6 106.75 158.03 107.01 157.52 107.34L133.28 123.09C132.66 123.51 131.9 123.65 131.17 123.5C130.44 123.35 129.8 122.92 129.4 122.29C128.99 121.67 128.85 120.91 129.01 120.18C129.17 119.45 129.61 118.82 130.24 118.42L154.47 102.66C155.47 102.01 156.57 101.52 157.72 101.2C158.87 100.89 160.06 100.76 161.26 100.81C162.45 100.87 163.62 101.1 164.74 101.52C165.86 101.93 166.91 102.52 167.84 103.26C169.28 104.39 170.43 105.84 171.19 107.5C171.95 109.16 172.3 110.98 172.22 112.81C172.14 114.63 171.62 116.41 170.71 118C169.81 119.58 168.54 120.93 167 121.92L131.2 145.07C130.3 145.65 129.36 146.17 128.39 146.61C127.42 147.06 126.41 147.44 125.39 147.74C124.36 148.04 123.31 148.27 122.26 148.42C121.2 148.58 120.13 148.65 119.06 148.65L119.06 148.65Z"></path></g><g id="Layer"><path id="Layer" class="shp1" d="M112.05 130.68L95.4 130.68C94.66 130.68 93.95 130.39 93.43 129.87C92.9 129.34 92.61 128.64 92.61 127.9C92.61 127.16 92.9 126.45 93.43 125.92C93.95 125.4 94.66 125.11 95.4 125.11L112.05 125.11C113.2 125.11 114.31 124.65 115.13 123.83C115.94 123.02 116.4 121.91 116.4 120.76C116.4 119.6 115.94 118.5 115.13 117.68C114.31 116.87 113.2 116.41 112.05 116.41L72.59 116.41C71.85 116.41 71.14 116.11 70.62 115.59C70.1 115.07 69.8 114.36 69.8 113.62C69.8 112.88 70.1 112.17 70.62 111.65C71.14 111.13 71.85 110.83 72.59 110.83L112.05 110.83C114.68 110.83 117.21 111.88 119.07 113.74C120.93 115.6 121.98 118.13 121.98 120.76C121.98 123.39 120.93 125.92 119.07 127.78C117.21 129.64 114.68 130.68 112.05 130.68L112.05 130.68Z"></path></g><g id="Layer"><path id="Layer" class="shp1" d="M66.94 155.7L58.43 155.7C57.33 155.7 56.23 155.48 55.21 155.06C54.19 154.64 53.26 154.01 52.47 153.23C51.69 152.45 51.07 151.52 50.64 150.5C50.22 149.47 50 148.38 50 147.27L50 131.35C50 130.61 50.29 129.9 50.82 129.38C51.34 128.85 52.05 128.56 52.79 128.56C53.53 128.56 54.24 128.85 54.76 129.38C55.28 129.9 55.58 130.61 55.58 131.35L55.58 147.27C55.58 147.64 55.65 148.01 55.79 148.36C55.94 148.71 56.15 149.02 56.41 149.29C56.68 149.55 56.99 149.76 57.34 149.9C57.69 150.05 58.06 150.12 58.43 150.12L66.94 150.12C67.32 150.12 67.69 150.05 68.04 149.9C68.38 149.76 68.7 149.55 68.96 149.29C69.23 149.02 69.44 148.71 69.58 148.36C69.73 148.01 69.8 147.64 69.8 147.27L69.8 104.51C69.8 104.13 69.73 103.76 69.58 103.41C69.44 103.07 69.23 102.75 68.96 102.49C68.7 102.22 68.38 102.01 68.04 101.87C67.69 101.72 67.32 101.65 66.94 101.65L58.43 101.65C58.06 101.65 57.69 101.72 57.34 101.87C56.99 102.01 56.68 102.22 56.41 102.49C56.15 102.75 55.94 103.07 55.79 103.41C55.65 103.76 55.58 104.13 55.58 104.51L55.58 109.89C55.58 110.63 55.28 111.34 54.76 111.86C54.24 112.38 53.53 112.68 52.79 112.68C52.05 112.68 51.34 112.38 50.82 111.86C50.29 111.34 50 110.63 50 109.89L50 104.51C50 103.4 50.22 102.3 50.64 101.28C51.07 100.26 51.69 99.33 52.47 98.54C53.26 97.76 54.19 97.14 55.21 96.72C56.23 96.29 57.33 96.07 58.43 96.07L66.94 96.07C68.05 96.07 69.15 96.29 70.17 96.72C71.19 97.14 72.12 97.76 72.9 98.54C73.69 99.33 74.31 100.26 74.73 101.28C75.16 102.3 75.37 103.4 75.38 104.51L75.38 147.27C75.38 148.37 75.16 149.47 74.73 150.49C74.31 151.52 73.69 152.45 72.9 153.23C72.12 154.01 71.19 154.63 70.17 155.06C69.15 155.48 68.05 155.7 66.94 155.7L66.94 155.7Z"></path></g><g id="Layer"><path id="Layer" class="shp0" d="M145.91 73.04C145.91 79.04 143.64 84.82 139.56 89.22C135.48 93.62 129.88 96.31 123.9 96.76C117.91 97.21 111.98 95.38 107.29 91.64C102.6 87.9 99.49 82.52 98.6 76.59C98.78 76.57 98.96 76.54 99.15 76.51C99.33 76.49 99.52 76.46 99.7 76.42C99.88 76.39 100.07 76.36 100.25 76.32C100.43 76.28 100.61 76.24 100.79 76.2C103.39 75.59 105.87 74.55 108.12 73.12C110.37 71.7 112.37 69.9 114.03 67.81C115.69 65.72 116.98 63.37 117.86 60.85C118.74 58.33 119.18 55.68 119.18 53.01C119.18 52.57 119.17 52.13 119.14 51.7C119.13 51.51 119.12 51.33 119.11 51.14C119.09 50.96 119.08 50.77 119.06 50.59C119.04 50.4 119.02 50.22 118.99 50.03C118.97 49.85 118.94 49.66 118.92 49.48C119.18 49.44 119.45 49.41 119.72 49.38C119.98 49.35 120.25 49.33 120.52 49.31C120.79 49.29 121.05 49.28 121.32 49.27C121.59 49.26 121.86 49.26 122.13 49.26C125.25 49.26 128.34 49.87 131.23 51.07C134.12 52.26 136.74 54.02 138.95 56.22C141.15 58.43 142.91 61.05 144.1 63.94C145.3 66.83 145.91 69.92 145.91 73.04L145.91 73.04Z"></path><path id="Layer" class="shp1" d="M122.13 47.02C121.82 47.03 121.52 47.03 121.21 47.04C120.91 47.05 120.61 47.07 120.3 47.09C120 47.11 119.7 47.14 119.39 47.17C119.09 47.2 118.79 47.24 118.49 47.28C118.54 47.46 118.58 47.64 118.62 47.83C118.66 48.01 118.7 48.19 118.73 48.38C118.77 48.56 118.8 48.74 118.83 48.93C118.86 49.11 118.89 49.3 118.91 49.48C118.94 49.66 118.97 49.85 118.99 50.03C119.02 50.22 119.04 50.4 119.05 50.59C119.07 50.77 119.09 50.96 119.1 51.14C119.12 51.33 119.13 51.51 119.14 51.7C119.38 51.66 119.63 51.63 119.88 51.61C120.13 51.58 120.38 51.56 120.63 51.54C120.88 51.52 121.13 51.51 121.38 51.5C121.63 51.49 121.88 51.49 122.13 51.49C130.56 51.49 138.21 56.41 141.72 64.08C145.22 71.74 143.94 80.75 138.43 87.13C132.92 93.51 124.2 96.1 116.1 93.74C108.01 91.39 102.03 84.54 100.79 76.2C100.61 76.24 100.43 76.28 100.25 76.32C100.06 76.36 99.88 76.39 99.7 76.43C99.51 76.46 99.33 76.49 99.15 76.52C98.96 76.54 98.78 76.57 98.59 76.59C98.41 76.62 98.22 76.64 98.04 76.66C97.85 76.68 97.67 76.7 97.49 76.72C97.3 76.74 97.11 76.75 96.93 76.76C96.74 76.77 96.56 76.78 96.37 76.79C97.84 86.87 105.05 95.16 114.82 98.02C124.59 100.88 135.14 97.77 141.8 90.07C148.46 82.37 150.02 71.49 145.78 62.23C141.55 52.97 132.3 47.03 122.12 47.03L122.13 47.02Z"></path></g><g id="Layer"><path id="Layer" class="shp1" d="M123.36 80.42L123.36 81.33C123.36 81.5 123.32 81.67 123.26 81.83C123.19 81.99 123.1 82.14 122.98 82.26C122.85 82.38 122.71 82.48 122.55 82.55C122.39 82.62 122.22 82.65 122.05 82.66C121.87 82.65 121.7 82.62 121.54 82.55C121.38 82.48 121.23 82.39 121.11 82.26C120.99 82.14 120.89 81.99 120.82 81.83C120.76 81.67 120.72 81.5 120.72 81.33L120.72 80.44C120.42 80.39 120.12 80.32 119.84 80.22C119.55 80.13 119.27 80 119 79.86C118.73 79.72 118.48 79.55 118.23 79.37C117.99 79.18 117.77 78.98 117.56 78.76C117.46 78.65 117.37 78.54 117.29 78.42C117.21 78.3 117.14 78.17 117.09 78.04C117.03 77.9 116.98 77.77 116.95 77.63C116.91 77.48 116.89 77.34 116.88 77.2C116.87 77.02 116.9 76.85 116.96 76.69C117.02 76.52 117.12 76.38 117.24 76.25C117.36 76.13 117.5 76.03 117.66 75.96C117.82 75.9 118 75.87 118.17 75.87C118.32 75.88 118.47 75.9 118.61 75.95C118.76 75.99 118.9 76.05 119.03 76.13C119.16 76.2 119.28 76.3 119.39 76.4C119.49 76.51 119.59 76.63 119.67 76.75C119.81 76.91 119.97 77.06 120.14 77.18C120.31 77.31 120.49 77.42 120.69 77.5C120.88 77.59 121.08 77.66 121.29 77.7C121.5 77.75 121.71 77.77 121.92 77.77C122.81 77.77 124.12 77.45 124.12 76.12C124.12 75.17 123.53 74.67 121.92 74.03L121.17 73.76C118.98 72.92 117.33 71.88 117.33 69.67C117.33 69.2 117.42 68.73 117.58 68.28C117.75 67.83 117.99 67.42 118.3 67.06C118.6 66.7 118.97 66.39 119.39 66.16C119.8 65.92 120.25 65.76 120.72 65.69L120.72 64.76C120.72 64.59 120.76 64.41 120.83 64.25C120.89 64.09 120.99 63.95 121.11 63.82C121.24 63.7 121.38 63.6 121.54 63.54C121.7 63.47 121.88 63.43 122.05 63.43C122.22 63.43 122.4 63.47 122.55 63.54C122.71 63.6 122.86 63.7 122.98 63.83C123.1 63.95 123.2 64.1 123.26 64.26C123.33 64.42 123.36 64.59 123.36 64.76L123.36 65.63C123.6 65.67 123.84 65.73 124.07 65.81C124.3 65.89 124.53 65.99 124.74 66.11C124.96 66.22 125.17 66.36 125.36 66.51C125.56 66.65 125.74 66.82 125.91 66.99C126.01 67.09 126.1 67.18 126.18 67.29C126.26 67.4 126.33 67.51 126.39 67.63C126.45 67.76 126.5 67.88 126.53 68.01C126.57 68.14 126.59 68.27 126.6 68.41C126.6 68.58 126.57 68.74 126.5 68.9C126.43 69.05 126.33 69.19 126.21 69.3C126.09 69.42 125.95 69.51 125.79 69.57C125.63 69.63 125.46 69.66 125.3 69.65C125.18 69.64 125.06 69.63 124.95 69.6C124.83 69.57 124.72 69.53 124.62 69.48C124.51 69.43 124.41 69.36 124.32 69.29C124.22 69.22 124.13 69.15 124.05 69.06C123.94 68.94 123.82 68.83 123.68 68.73C123.55 68.63 123.4 68.55 123.25 68.49C123.1 68.42 122.94 68.37 122.78 68.34C122.61 68.31 122.45 68.3 122.28 68.3C121.12 68.3 120.51 68.91 120.51 69.71C120.51 70.26 120.75 70.87 121.97 71.34L122.66 71.59C126.14 72.87 127.36 74.16 127.36 76.12C127.36 78.54 125.4 79.98 123.36 80.42Z"></path></g><g id="Layer"><path id="Layer" class="shp1" d="M96.63 60.14L96.63 61.05C96.63 61.22 96.6 61.39 96.53 61.55C96.47 61.71 96.37 61.86 96.25 61.98C96.13 62.11 95.99 62.2 95.83 62.27C95.67 62.34 95.5 62.37 95.32 62.38C95.15 62.37 94.98 62.34 94.82 62.27C94.66 62.21 94.51 62.11 94.39 61.98C94.26 61.86 94.17 61.72 94.1 61.55C94.03 61.39 94 61.22 94 61.05L94 60.16C93.69 60.11 93.4 60.04 93.11 59.94C92.82 59.85 92.54 59.73 92.27 59.58C92.01 59.44 91.75 59.27 91.51 59.09C91.27 58.9 91.04 58.7 90.83 58.48C90.73 58.37 90.64 58.26 90.56 58.14C90.49 58.02 90.42 57.89 90.36 57.76C90.3 57.62 90.26 57.49 90.22 57.35C90.19 57.21 90.17 57.06 90.16 56.92C90.15 56.74 90.17 56.57 90.24 56.41C90.3 56.25 90.39 56.1 90.51 55.97C90.63 55.85 90.78 55.75 90.94 55.68C91.1 55.62 91.27 55.59 91.44 55.59C91.59 55.6 91.74 55.62 91.89 55.67C92.03 55.71 92.17 55.77 92.3 55.85C92.43 55.93 92.55 56.02 92.66 56.12C92.77 56.23 92.86 56.35 92.94 56.47C93.08 56.63 93.24 56.78 93.41 56.9C93.58 57.03 93.77 57.14 93.96 57.22C94.16 57.31 94.36 57.38 94.57 57.42C94.77 57.47 94.99 57.49 95.2 57.49C96.08 57.49 97.39 57.17 97.39 55.84C97.39 54.89 96.8 54.39 95.2 53.76L94.44 53.48C92.25 52.64 90.6 51.61 90.6 49.39C90.61 48.92 90.69 48.45 90.86 48C91.02 47.56 91.26 47.14 91.57 46.78C91.88 46.42 92.25 46.11 92.66 45.88C93.08 45.65 93.53 45.49 94 45.41L94 44.48C94 44.31 94.03 44.14 94.1 43.98C94.17 43.82 94.27 43.67 94.39 43.55C94.51 43.42 94.66 43.33 94.82 43.26C94.98 43.19 95.15 43.16 95.33 43.16C95.5 43.16 95.67 43.19 95.83 43.26C95.99 43.33 96.13 43.43 96.25 43.55C96.38 43.67 96.47 43.82 96.54 43.98C96.6 44.14 96.63 44.31 96.63 44.48L96.63 45.35C96.87 45.39 97.11 45.46 97.34 45.54C97.58 45.62 97.8 45.72 98.02 45.83C98.23 45.95 98.44 46.08 98.63 46.23C98.83 46.38 99.01 46.54 99.18 46.72C99.28 46.81 99.37 46.91 99.45 47.01C99.54 47.12 99.61 47.24 99.67 47.36C99.73 47.48 99.77 47.6 99.81 47.73C99.84 47.86 99.87 48 99.88 48.13C99.88 48.3 99.84 48.46 99.77 48.62C99.71 48.77 99.61 48.91 99.49 49.03C99.36 49.14 99.22 49.23 99.06 49.29C98.91 49.35 98.74 49.38 98.57 49.37C98.45 49.37 98.34 49.35 98.22 49.32C98.11 49.29 98 49.25 97.89 49.2C97.79 49.15 97.68 49.09 97.59 49.02C97.5 48.95 97.41 48.87 97.33 48.78C97.22 48.66 97.09 48.55 96.96 48.45C96.82 48.36 96.68 48.28 96.53 48.21C96.37 48.15 96.21 48.1 96.05 48.07C95.89 48.03 95.72 48.02 95.56 48.02C94.4 48.02 93.79 48.63 93.79 49.44C93.79 49.98 94.02 50.6 95.24 51.06L95.94 51.31C99.41 52.6 100.64 53.88 100.64 55.84C100.63 58.27 98.67 59.7 96.63 60.14Z"></path></g><g id="Layer"><path id="Layer" fill-rule="evenodd" class="shp1" d="M71.36 62.98C67.33 53.25 69.56 42.06 77 34.62C84.44 27.18 95.63 24.95 105.35 28.98C115.08 33.01 121.42 42.5 121.42 53.02C121.41 56.43 120.74 59.82 119.43 62.97C118.12 66.13 116.2 68.99 113.79 71.41C111.37 73.82 108.5 75.74 105.35 77.05C102.19 78.36 98.81 79.03 95.4 79.04C84.87 79.04 75.39 72.7 71.36 62.98ZM95.4 31.46C86.68 31.46 78.82 36.71 75.48 44.77C72.14 52.82 73.99 62.1 80.15 68.26C86.32 74.43 95.59 76.27 103.65 72.94C111.7 69.6 116.95 61.74 116.95 53.02C116.95 50.19 116.39 47.39 115.31 44.77C114.22 42.16 112.63 39.78 110.63 37.78C108.63 35.78 106.26 34.19 103.64 33.11C101.03 32.02 98.23 31.46 95.4 31.46L95.4 31.46Z"></path></g></g><path id="Layer" class="shp1" d="M71.84 142.98L80.2 142.98C80.57 142.98 80.93 143.05 81.27 143.19C81.61 143.33 81.91 143.53 82.17 143.79C82.43 144.05 82.64 144.36 82.78 144.7C82.92 145.04 82.99 145.4 82.99 145.76L82.99 145.76C82.99 146.13 82.92 146.49 82.78 146.83C82.64 147.17 82.43 147.48 82.17 147.74C81.91 148 81.61 148.2 81.27 148.34C80.93 148.48 80.57 148.55 80.2 148.55L71.84 148.55L71.84 142.98Z"></path></g></svg> 