<?xml version="1.0" encoding="UTF-8"?> <svg xmlns="http://www.w3.org/2000/svg" viewBox="0 0 223 182" width="223" height="182"><style> tspan { white-space:pre } .shp0 { fill: #ff0000 } .shp1 { fill: #000000 } </style><g id="Layer"><g id="Layer"><g id="Layer"><path id="Layer" class="shp0" d="M130.52 145.91L119.93 137.78C119.77 137.66 119.64 137.5 119.55 137.31C119.46 137.13 119.42 136.92 119.42 136.72C119.42 136.51 119.47 136.31 119.57 136.13C119.66 135.95 119.8 135.79 119.96 135.67L133.83 125.59L133.83 131.42L144.62 131.42C144.92 131.42 145.21 131.48 145.48 131.59C145.75 131.7 146 131.87 146.21 132.08C146.42 132.29 146.58 132.53 146.7 132.81C146.81 133.08 146.87 133.37 146.87 133.67L146.87 139.75C146.87 140.04 146.81 140.34 146.7 140.61C146.58 140.88 146.42 141.13 146.21 141.34C146 141.55 145.75 141.71 145.48 141.83C145.21 141.94 144.92 142 144.62 142L136.19 142L133.83 144.25"></path></g><g id="Layer"><path id="Layer" class="shp1" d="M119.1 93.79L116.69 93.79C115.94 93.81 115.21 93.52 114.68 92.99C114.14 92.47 113.84 91.75 113.84 91C113.84 90.25 114.14 89.53 114.68 89.01C115.21 88.48 115.94 88.19 116.69 88.21L119.1 88.21C119.85 88.19 120.57 88.48 121.11 89.01C121.64 89.53 121.95 90.25 121.95 91C121.95 91.75 121.64 92.47 121.11 92.99C120.57 93.52 119.85 93.81 119.1 93.79L119.1 93.79Z"></path></g><path id="Layer" class="shp1" d="M161.7 171L104.59 171C102.9 171 101.23 170.66 99.68 170.02C98.12 169.37 96.7 168.43 95.51 167.23C94.32 166.04 93.37 164.63 92.73 163.07C92.08 161.51 91.75 159.84 91.75 158.16L91.75 101.05C91.75 99.36 92.08 97.69 92.73 96.14C93.37 94.58 94.32 93.16 95.51 91.97C96.7 90.78 98.12 89.83 99.68 89.19C101.23 88.54 102.9 88.21 104.59 88.21L109.16 88.21C109.91 88.19 110.64 88.48 111.17 89.01C111.71 89.53 112.01 90.25 112.01 91C112.01 91.75 111.71 92.47 111.17 92.99C110.64 93.52 109.91 93.81 109.16 93.79L104.59 93.79C103.64 93.79 102.7 93.98 101.82 94.35C100.94 94.71 100.14 95.25 99.47 95.92C98.79 96.59 98.26 97.39 97.89 98.27C97.53 99.15 97.34 100.1 97.34 101.05L97.34 158.16C97.34 159.11 97.53 160.05 97.89 160.93C98.26 161.81 98.79 162.61 99.47 163.29C100.14 163.96 100.94 164.49 101.82 164.86C102.7 165.22 103.64 165.41 104.59 165.41L161.7 165.41C162.65 165.41 163.6 165.22 164.48 164.86C165.36 164.49 166.16 163.96 166.83 163.29C167.5 162.61 168.04 161.81 168.4 160.93C168.77 160.05 168.95 159.11 168.96 158.16L168.96 101.05C168.96 100.1 168.77 99.15 168.4 98.27C168.04 97.39 167.5 96.59 166.83 95.92C166.16 95.25 165.36 94.71 164.48 94.35C163.6 93.98 162.65 93.79 161.7 93.79L128.55 93.79L128.55 109.77L131.28 107.32C131.53 107.09 131.83 106.92 132.15 106.79C132.46 106.67 132.8 106.61 133.14 106.61C133.48 106.61 133.82 106.67 134.14 106.79C134.46 106.92 134.75 107.09 135.01 107.32L137.74 109.77L137.74 100.03C137.76 99.3 138.06 98.61 138.58 98.09C139.1 97.58 139.8 97.29 140.54 97.29C141.27 97.29 141.97 97.58 142.49 98.09C143.01 98.61 143.32 99.3 143.33 100.03L143.33 113.76C143.33 114.49 143.12 115.21 142.72 115.83C142.32 116.45 141.75 116.94 141.07 117.24C140.4 117.54 139.66 117.63 138.93 117.52C138.21 117.41 137.53 117.09 136.98 116.59L133.14 113.16L129.31 116.59C128.76 117.09 128.08 117.41 127.35 117.52C126.63 117.63 125.88 117.54 125.21 117.24C124.54 116.94 123.97 116.45 123.57 115.83C123.17 115.21 122.96 114.49 122.96 113.76L122.96 93.1C122.96 92.46 123.08 91.82 123.33 91.23C123.58 90.63 123.94 90.09 124.39 89.64C124.85 89.18 125.39 88.82 125.98 88.58C126.58 88.33 127.21 88.2 127.86 88.2L161.7 88.2C163.39 88.21 165.05 88.54 166.61 89.19C168.17 89.83 169.58 90.78 170.78 91.97C171.97 93.16 172.91 94.58 173.56 96.13C174.21 97.69 174.54 99.36 174.54 101.05L174.54 158.16C174.54 159.84 174.21 161.51 173.56 163.07C172.91 164.63 171.97 166.04 170.78 167.24C169.58 168.43 168.17 169.37 166.61 170.02C165.05 170.67 163.38 171 161.7 171L161.7 171Z"></path><g id="Layer"><g id="Layer"><path id="Layer" fill-rule="evenodd" class="shp1" d="M144.62 144.79L137.22 144.79C136.48 144.79 135.77 144.49 135.25 143.97C134.72 143.45 134.43 142.74 134.43 141.99C134.43 141.25 134.72 140.54 135.25 140.02C135.77 139.49 136.48 139.2 137.22 139.2L144.07 139.2L144.07 134.21L142.89 134.21C142.15 134.21 141.44 133.92 140.91 133.4C140.39 132.87 140.09 132.16 140.09 131.42C140.09 130.68 140.39 129.97 140.91 129.44C141.44 128.92 142.15 128.63 142.89 128.63L144.62 128.63C145.28 128.63 145.94 128.76 146.55 129.01C147.16 129.26 147.72 129.64 148.18 130.1C148.65 130.57 149.02 131.13 149.28 131.74C149.53 132.35 149.66 133 149.66 133.66L149.66 139.75C149.66 140.41 149.53 141.06 149.28 141.68C149.02 142.29 148.65 142.84 148.18 143.31C147.72 143.78 147.16 144.15 146.55 144.4C145.94 144.66 145.29 144.79 144.62 144.79Z"></path></g><path id="Layer" class="shp1" d="M130.52 148.7C130.37 148.71 130.21 148.69 130.06 148.67C129.91 148.64 129.77 148.61 129.62 148.56C129.48 148.51 129.34 148.45 129.2 148.38C129.07 148.3 128.94 148.22 128.82 148.13L118.23 140C117.72 139.61 117.31 139.11 117.04 138.53C116.76 137.96 116.61 137.32 116.62 136.68C116.63 136.04 116.79 135.41 117.08 134.84C117.38 134.28 117.8 133.78 118.32 133.41L132.18 123.33C132.6 123.03 133.09 122.85 133.61 122.81C134.12 122.77 134.64 122.87 135.09 123.1C135.55 123.34 135.94 123.69 136.21 124.13C136.48 124.57 136.62 125.08 136.62 125.59L136.62 131.42C136.62 131.79 136.55 132.15 136.41 132.49C136.27 132.83 136.06 133.14 135.8 133.4C135.54 133.66 135.23 133.86 134.9 134C134.56 134.15 134.19 134.22 133.83 134.22L133.83 134.22C133.46 134.22 133.1 134.15 132.76 134.01C132.42 133.87 132.11 133.66 131.85 133.4C131.59 133.14 131.39 132.83 131.25 132.5C131.1 132.16 131.03 131.79 131.03 131.43L131.03 131.08L123.2 136.77L132.22 143.7C132.68 144.05 133.02 144.55 133.19 145.1C133.36 145.66 133.35 146.26 133.16 146.81C132.98 147.37 132.62 147.85 132.15 148.19C131.67 148.53 131.1 148.71 130.52 148.71L130.52 148.7Z"></path></g><g id="Layer"><path id="Layer" fill-rule="evenodd" class="shp1" d="M111.46 101.14C111.49 101.17 111.53 101.19 111.56 101.22C111.59 101.25 111.62 101.29 111.64 101.32C111.67 101.36 111.68 101.4 111.7 101.45C111.71 101.49 111.71 101.53 111.71 101.58L111.71 105.43C111.71 105.48 111.71 105.52 111.7 105.56C111.68 105.6 111.67 105.64 111.64 105.68C111.62 105.72 111.59 105.75 111.56 105.78C111.53 105.82 111.49 105.84 111.45 105.86L107.32 108.1C107.28 108.12 107.23 108.14 107.19 108.15C107.15 108.16 107.1 108.17 107.06 108.17C107.01 108.17 106.97 108.16 106.92 108.15C106.88 108.14 106.84 108.12 106.8 108.1L102.65 105.86C102.61 105.84 102.57 105.81 102.54 105.78C102.51 105.75 102.48 105.71 102.46 105.68C102.44 105.64 102.42 105.6 102.41 105.55C102.39 105.51 102.39 105.47 102.39 105.42L102.39 101.58C102.39 101.54 102.39 101.5 102.4 101.45C102.42 101.41 102.43 101.37 102.46 101.33C102.48 101.29 102.51 101.26 102.54 101.23C102.57 101.2 102.61 101.17 102.65 101.15L106.77 98.92C106.81 98.9 106.86 98.87 106.9 98.86C106.95 98.85 107 98.84 107.05 98.84C107.1 98.84 107.16 98.85 107.2 98.86C107.25 98.87 107.3 98.9 107.34 98.92L111.46 101.14ZM103.4 101.53L107.05 103.5L110.7 101.53L107.05 99.56L103.4 101.53ZM105.59 103.5L103.08 102.14L103.08 104.86L105.59 103.5ZM110.7 105.47L107.78 103.89L107.29 104.16C107.26 104.18 107.22 104.19 107.18 104.2C107.14 104.22 107.09 104.22 107.05 104.22C107.01 104.22 106.97 104.22 106.93 104.2C106.88 104.19 106.85 104.18 106.81 104.16L106.32 103.89L103.4 105.47L107.05 107.45L110.7 105.47ZM111 104.85L111 102.15L108.51 103.5L111 104.85Z"></path><path id="Layer" fill-rule="evenodd" class="shp1" d="M107.05 108.45C107.02 108.45 106.98 108.45 106.95 108.44C106.91 108.44 106.88 108.43 106.85 108.42C106.81 108.41 106.78 108.4 106.75 108.39C106.72 108.38 106.69 108.36 106.66 108.35L102.51 106.11C102.45 106.07 102.39 106.03 102.34 105.98C102.29 105.94 102.25 105.88 102.21 105.82C102.18 105.76 102.15 105.7 102.13 105.63C102.11 105.56 102.1 105.5 102.1 105.43L102.1 101.59C102.1 101.52 102.11 101.45 102.13 101.38C102.15 101.31 102.18 101.25 102.21 101.19C102.25 101.13 102.29 101.08 102.34 101.03C102.39 100.98 102.45 100.94 102.51 100.91L106.65 98.67L106.67 98.66L106.69 98.65C106.75 98.62 106.81 98.6 106.88 98.58C106.94 98.57 107.01 98.56 107.08 98.56C107.14 98.57 107.21 98.58 107.27 98.59C107.34 98.61 107.4 98.64 107.46 98.67L107.48 98.68L111.58 100.9C111.64 100.93 111.7 100.98 111.75 101.02C111.8 101.07 111.84 101.13 111.88 101.19C111.91 101.24 111.94 101.31 111.96 101.38C111.98 101.44 111.99 101.51 111.99 101.58L111.99 105.44C111.99 105.5 111.98 105.57 111.96 105.64C111.94 105.71 111.91 105.77 111.88 105.83C111.84 105.89 111.8 105.94 111.75 105.99C111.7 106.04 111.64 106.08 111.58 106.11L107.44 108.35C107.41 108.37 107.38 108.38 107.35 108.39C107.32 108.41 107.29 108.42 107.25 108.42C107.22 108.43 107.19 108.44 107.15 108.44C107.12 108.45 107.09 108.45 107.05 108.45ZM106.83 99.2L102.77 101.4C102.76 101.41 102.74 101.42 102.73 101.43C102.71 101.45 102.7 101.46 102.69 101.48C102.68 101.49 102.67 101.51 102.67 101.53C102.66 101.55 102.66 101.57 102.66 101.58L102.66 105.42C102.66 105.44 102.66 105.46 102.67 105.48C102.67 105.5 102.68 105.52 102.69 105.53C102.7 105.55 102.71 105.57 102.73 105.58C102.74 105.59 102.76 105.6 102.78 105.61L106.92 107.86C106.94 107.87 106.96 107.88 106.98 107.88C107.01 107.89 107.03 107.89 107.05 107.89C107.07 107.89 107.09 107.89 107.11 107.88C107.14 107.88 107.16 107.87 107.17 107.86L111.31 105.62C111.33 105.61 111.35 105.6 111.36 105.59C111.38 105.57 111.39 105.56 111.4 105.54C111.41 105.52 111.41 105.51 111.42 105.49C111.43 105.47 111.43 105.45 111.43 105.43L111.43 101.58C111.43 101.56 111.43 101.54 111.42 101.52C111.41 101.5 111.41 101.48 111.4 101.47C111.39 101.45 111.38 101.44 111.36 101.42C111.35 101.41 111.33 101.4 111.31 101.39L107.19 99.16C107.17 99.15 107.15 99.14 107.12 99.13C107.1 99.12 107.07 99.12 107.05 99.12C107.03 99.12 107 99.12 106.98 99.13C106.95 99.14 106.93 99.15 106.91 99.16L106.83 99.2ZM107.05 107.77L102.81 105.48L106.32 103.58L106.94 103.92C106.96 103.92 106.98 103.93 106.99 103.94C107.01 103.94 107.03 103.94 107.05 103.94C107.07 103.94 107.09 103.94 107.11 103.94C107.13 103.93 107.14 103.92 107.16 103.92L107.78 103.58L111.29 105.48L107.05 107.77ZM103.99 105.48L107.05 107.14L110.11 105.48L107.78 104.22L107.43 104.41C107.37 104.44 107.31 104.46 107.25 104.48C107.18 104.5 107.12 104.51 107.05 104.51C106.99 104.51 106.92 104.5 106.86 104.48C106.79 104.46 106.73 104.44 106.68 104.41L106.32 104.22L103.99 105.48ZM102.81 105.33L102.81 101.68L106.18 103.5L102.81 105.33ZM103.36 102.62L103.36 104.39L105 103.5L103.36 102.62ZM111.28 105.32L107.92 103.5L111.28 101.69L111.28 105.32ZM109.1 103.5L110.72 104.38L110.72 102.62L109.1 103.5ZM107.05 103.82L102.81 101.53L107.05 99.24L111.29 101.53L107.05 103.82ZM103.99 101.53L107.05 103.18L110.11 101.53L107.05 99.87L103.99 101.53Z"></path></g><g id="Layer"><path id="Layer" class="shp1" d="M123.52 164.08C123.37 164.08 123.23 164.05 123.09 164C122.96 163.94 122.83 163.86 122.73 163.75C122.62 163.65 122.54 163.53 122.49 163.39C122.43 163.26 122.4 163.11 122.4 162.96L122.4 158.95C122.4 158.66 122.52 158.37 122.73 158.16C122.94 157.95 123.22 157.84 123.52 157.84C123.81 157.84 124.1 157.95 124.31 158.16C124.52 158.37 124.63 158.66 124.63 158.95L124.63 162.97C124.63 163.11 124.61 163.26 124.55 163.39C124.49 163.53 124.41 163.65 124.31 163.75C124.2 163.86 124.08 163.94 123.95 164C123.81 164.05 123.66 164.08 123.52 164.08L123.52 164.08Z"></path></g><g id="Layer"><path id="Layer" class="shp1" d="M127.37 164.08C127.22 164.08 127.08 164.05 126.94 164C126.81 163.94 126.68 163.86 126.58 163.75C126.47 163.65 126.39 163.53 126.34 163.39C126.28 163.26 126.25 163.11 126.25 162.96L126.25 158.95C126.25 158.66 126.37 158.37 126.58 158.16C126.79 157.95 127.07 157.84 127.37 157.84C127.67 157.84 127.95 157.95 128.16 158.16C128.37 158.37 128.49 158.66 128.49 158.95L128.49 162.97C128.49 163.11 128.46 163.26 128.4 163.39C128.35 163.53 128.26 163.65 128.16 163.76C128.05 163.86 127.93 163.94 127.8 164C127.66 164.05 127.51 164.08 127.37 164.08L127.37 164.08Z"></path></g><g id="Layer"><path id="Layer" class="shp1" d="M131.22 164.08C131.07 164.08 130.93 164.05 130.79 164C130.66 163.94 130.53 163.86 130.43 163.76C130.32 163.65 130.24 163.53 130.19 163.39C130.13 163.26 130.1 163.11 130.1 162.97L130.1 158.95C130.1 158.66 130.22 158.37 130.43 158.16C130.64 157.95 130.92 157.84 131.22 157.84C131.51 157.84 131.8 157.95 132.01 158.16C132.22 158.37 132.34 158.66 132.34 158.95L132.34 162.97C132.34 163.11 132.31 163.26 132.25 163.39C132.19 163.53 132.11 163.65 132.01 163.75C131.9 163.86 131.78 163.94 131.65 164C131.51 164.05 131.37 164.08 131.22 164.08L131.22 164.08Z"></path></g><g id="Layer"><path id="Layer" class="shp1" d="M135.07 164.08C134.92 164.08 134.78 164.05 134.64 164C134.51 163.94 134.38 163.86 134.28 163.75C134.17 163.65 134.09 163.53 134.04 163.39C133.98 163.26 133.95 163.11 133.95 162.96L133.95 158.95C133.95 158.66 134.07 158.37 134.28 158.16C134.49 157.95 134.77 157.84 135.07 157.84C135.36 157.84 135.65 157.95 135.86 158.16C136.07 158.37 136.18 158.66 136.18 158.95L136.18 162.97C136.18 163.11 136.16 163.26 136.1 163.39C136.04 163.53 135.96 163.65 135.86 163.75C135.75 163.86 135.63 163.94 135.5 164C135.36 164.05 135.21 164.08 135.07 164.08L135.07 164.08Z"></path></g><g id="Layer"><path id="Layer" class="shp1" d="M138.92 164.08C138.77 164.08 138.63 164.05 138.49 164C138.36 163.94 138.23 163.86 138.13 163.76C138.03 163.65 137.94 163.53 137.89 163.39C137.83 163.26 137.8 163.11 137.8 162.97L137.8 158.95C137.8 158.66 137.92 158.37 138.13 158.16C138.34 157.95 138.62 157.84 138.92 157.84C139.22 157.84 139.5 157.95 139.71 158.16C139.92 158.37 140.04 158.66 140.04 158.95L140.04 162.97C140.04 163.11 140.01 163.26 139.95 163.39C139.9 163.53 139.81 163.65 139.71 163.75C139.61 163.86 139.48 163.94 139.35 164C139.21 164.05 139.07 164.08 138.92 164.08L138.92 164.08Z"></path></g><g id="Layer"><path id="Layer" class="shp1" d="M142.77 164.08C142.62 164.08 142.48 164.05 142.34 164C142.21 163.94 142.08 163.86 141.98 163.75C141.87 163.65 141.79 163.53 141.74 163.39C141.68 163.26 141.65 163.11 141.65 162.96L141.65 158.95C141.65 158.66 141.77 158.37 141.98 158.16C142.19 157.95 142.47 157.84 142.77 157.84C143.07 157.84 143.35 157.95 143.56 158.16C143.77 158.37 143.89 158.66 143.89 158.95L143.89 162.97C143.89 163.11 143.86 163.26 143.8 163.39C143.75 163.53 143.66 163.65 143.56 163.76C143.45 163.86 143.33 163.94 143.2 164C143.06 164.05 142.91 164.08 142.77 164.08L142.77 164.08Z"></path></g></g><g id="Layer"><g id="Layer"><path id="Layer" class="shp0" d="M92.02 68.71L102.61 60.58C102.77 60.45 102.9 60.29 102.99 60.11C103.08 59.92 103.13 59.72 103.12 59.51C103.12 59.31 103.07 59.11 102.98 58.92C102.88 58.74 102.75 58.58 102.58 58.46L88.71 48.39L88.71 54.21L77.92 54.21C77.62 54.21 77.33 54.27 77.06 54.39C76.79 54.5 76.54 54.66 76.33 54.87C76.12 55.08 75.96 55.33 75.84 55.6C75.73 55.87 75.67 56.16 75.67 56.46L75.67 62.54C75.67 62.84 75.73 63.13 75.84 63.4C75.96 63.67 76.12 63.92 76.33 64.13C76.54 64.34 76.79 64.5 77.06 64.62C77.33 64.73 77.62 64.79 77.92 64.79L86.35 64.79L88.71 67.05"></path></g><g id="Layer"><path id="Layer" class="shp1" d="M75.35 16.59L72.94 16.59C72.19 16.6 71.47 16.31 70.93 15.79C70.39 15.26 70.09 14.54 70.09 13.79C70.09 13.04 70.39 12.32 70.93 11.8C71.47 11.27 72.19 10.99 72.94 11L75.35 11C76.08 11.01 76.78 11.31 77.29 11.84C77.81 12.36 78.09 13.06 78.09 13.79C78.09 14.53 77.81 15.23 77.29 15.75C76.78 16.27 76.08 16.57 75.35 16.59L75.35 16.59Z"></path></g><path id="Layer" class="shp1" d="M117.95 93.79L60.84 93.79C59.16 93.79 57.49 93.46 55.93 92.81C54.37 92.17 52.96 91.22 51.77 90.03C50.57 88.84 49.63 87.42 48.98 85.86C48.34 84.31 48 82.64 48 80.95L48 23.84C48 22.16 48.34 20.49 48.98 18.93C49.63 17.37 50.57 15.96 51.77 14.77C52.96 13.57 54.37 12.63 55.93 11.98C57.49 11.34 59.16 11 60.84 11L65.41 11C66.15 11.01 66.84 11.31 67.36 11.84C67.87 12.36 68.16 13.06 68.16 13.79C68.16 14.53 67.87 15.23 67.36 15.75C66.84 16.27 66.15 16.57 65.41 16.59L60.84 16.59C59.89 16.59 58.95 16.78 58.07 17.14C57.19 17.51 56.39 18.04 55.71 18.71C55.04 19.39 54.51 20.19 54.14 21.07C53.78 21.95 53.59 22.89 53.59 23.84L53.59 80.95C53.59 81.9 53.78 82.85 54.14 83.73C54.51 84.61 55.04 85.41 55.71 86.08C56.39 86.75 57.19 87.29 58.07 87.65C58.95 88.02 59.89 88.2 60.84 88.21L117.95 88.21C118.9 88.21 119.85 88.02 120.73 87.65C121.6 87.29 122.4 86.75 123.08 86.08C123.75 85.41 124.29 84.61 124.65 83.73C125.02 82.85 125.2 81.9 125.21 80.95L125.21 23.84C125.2 22.89 125.02 21.95 124.65 21.07C124.29 20.19 123.75 19.39 123.08 18.71C122.4 18.04 121.61 17.51 120.73 17.14C119.85 16.78 118.9 16.59 117.95 16.59L84.8 16.59L84.8 32.57L87.53 30.12C87.79 29.89 88.08 29.71 88.4 29.59C88.72 29.47 89.06 29.4 89.4 29.4C89.74 29.4 90.08 29.47 90.39 29.59C90.71 29.71 91.01 29.89 91.26 30.12L93.99 32.57L93.99 22.83C94 22.09 94.29 21.38 94.81 20.85C95.34 20.33 96.05 20.03 96.79 20.03C97.53 20.03 98.24 20.33 98.77 20.85C99.29 21.38 99.58 22.09 99.58 22.83L99.58 36.55C99.58 37.29 99.37 38.01 98.97 38.62C98.57 39.24 98 39.73 97.33 40.03C96.66 40.33 95.91 40.43 95.19 40.31C94.46 40.2 93.78 39.88 93.24 39.39L89.4 35.95L85.56 39.39C85.01 39.88 84.34 40.2 83.61 40.31C82.88 40.43 82.14 40.33 81.47 40.03C80.8 39.73 80.23 39.24 79.82 38.62C79.42 38.01 79.21 37.29 79.21 36.55L79.21 15.9C79.21 15.25 79.34 14.62 79.58 14.02C79.83 13.43 80.19 12.89 80.65 12.43C81.1 11.98 81.64 11.62 82.24 11.37C82.83 11.12 83.47 11 84.11 11L117.95 11C119.64 11 121.31 11.33 122.86 11.98C124.42 12.63 125.84 13.57 127.03 14.76C128.22 15.96 129.17 17.37 129.81 18.93C130.46 20.49 130.79 22.15 130.8 23.84L130.8 80.95C130.79 82.64 130.46 84.31 129.81 85.86C129.17 87.42 128.22 88.84 127.03 90.03C125.84 91.22 124.42 92.17 122.86 92.81C121.31 93.46 119.64 93.79 117.95 93.79L117.95 93.79Z"></path><g id="Layer"><g id="Layer"><path id="Layer" fill-rule="evenodd" class="shp1" d="M72.88 62.54L72.88 56.46C72.88 55.8 73.01 55.14 73.26 54.53C73.52 53.92 73.89 53.37 74.35 52.9C74.82 52.43 75.38 52.06 75.99 51.81C76.6 51.55 77.26 51.42 77.92 51.42L79.65 51.42C80.39 51.42 81.1 51.71 81.62 52.24C82.15 52.76 82.44 53.47 82.44 54.21C82.44 54.96 82.15 55.67 81.62 56.19C81.1 56.71 80.39 57.01 79.65 57.01L78.47 57.01L78.47 61.99L85.31 61.99C86.06 62 86.77 62.29 87.29 62.81C87.81 63.34 88.11 64.05 88.11 64.79C88.11 65.53 87.81 66.24 87.29 66.77C86.77 67.29 86.06 67.58 85.31 67.58L77.91 67.58C77.25 67.58 76.6 67.45 75.99 67.2C75.38 66.94 74.82 66.57 74.35 66.1C73.89 65.64 73.51 65.08 73.26 64.47C73.01 63.86 72.88 63.2 72.88 62.54Z"></path></g><g id="Layer"><path id="Layer" class="shp1" d="M92.02 71.5C92.17 71.5 92.33 71.49 92.48 71.46C92.63 71.44 92.78 71.4 92.92 71.35C93.06 71.3 93.2 71.24 93.34 71.17C93.47 71.1 93.6 71.01 93.72 70.92L104.31 62.79C104.82 62.4 105.23 61.9 105.5 61.32C105.78 60.75 105.93 60.12 105.92 59.48C105.91 58.83 105.75 58.21 105.46 57.64C105.16 57.07 104.74 56.58 104.22 56.2L90.36 46.13C89.94 45.83 89.45 45.65 88.93 45.61C88.42 45.57 87.91 45.67 87.45 45.9C86.99 46.14 86.6 46.49 86.33 46.93C86.06 47.37 85.92 47.87 85.92 48.39L85.92 54.21C85.92 54.58 85.99 54.94 86.13 55.28C86.27 55.62 86.48 55.93 86.73 56.19C86.99 56.45 87.3 56.66 87.64 56.8C87.98 56.94 88.34 57.01 88.71 57.01L88.71 57.01C89.08 57.01 89.44 56.94 89.78 56.8C90.12 56.66 90.43 56.45 90.69 56.19C90.95 55.93 91.16 55.63 91.3 55.29C91.44 54.95 91.51 54.58 91.51 54.22L91.51 53.87L99.34 59.56L90.32 66.49C89.86 66.84 89.52 67.33 89.35 67.89C89.18 68.45 89.19 69.05 89.37 69.6C89.56 70.15 89.92 70.63 90.39 70.97C90.87 71.31 91.43 71.49 92.02 71.5L92.02 71.5Z"></path></g></g><g id="Layer"><path id="Layer" fill-rule="evenodd" class="shp1" d="M67.71 23.94C67.75 23.96 67.78 23.99 67.81 24.02C67.85 24.05 67.87 24.08 67.9 24.12C67.92 24.16 67.94 24.2 67.95 24.24C67.96 24.28 67.97 24.33 67.97 24.37L67.97 28.23C67.97 28.27 67.96 28.31 67.95 28.36C67.94 28.4 67.92 28.44 67.9 28.48C67.87 28.52 67.85 28.55 67.81 28.58C67.78 28.61 67.75 28.64 67.71 28.66L63.57 30.89C63.53 30.92 63.49 30.93 63.44 30.94C63.4 30.95 63.36 30.96 63.31 30.96C63.27 30.96 63.22 30.95 63.18 30.94C63.13 30.93 63.09 30.92 63.05 30.89L58.9 28.65C58.86 28.63 58.83 28.6 58.79 28.57C58.76 28.54 58.73 28.51 58.71 28.47C58.69 28.43 58.67 28.39 58.66 28.35C58.65 28.31 58.64 28.26 58.64 28.22L58.64 24.38C58.64 24.33 58.65 24.29 58.66 24.25C58.67 24.2 58.69 24.16 58.71 24.13C58.73 24.09 58.76 24.05 58.79 24.02C58.83 23.99 58.86 23.97 58.9 23.95L63.02 21.72C63.06 21.69 63.11 21.67 63.16 21.65C63.21 21.64 63.26 21.63 63.31 21.63C63.36 21.63 63.41 21.64 63.46 21.65C63.51 21.67 63.55 21.69 63.6 21.72L67.71 23.94ZM59.66 24.32L63.31 26.3L66.95 24.32L63.31 22.35L59.66 24.32ZM61.85 26.3L59.34 24.94L59.34 27.65L61.85 26.3ZM66.95 28.27L64.03 26.69L63.55 26.95C63.51 26.97 63.47 26.99 63.43 27C63.39 27.01 63.35 27.01 63.31 27.01C63.26 27.01 63.22 27.01 63.18 27C63.14 26.99 63.1 26.97 63.06 26.95L62.58 26.69L59.66 28.27L63.31 30.24L66.95 28.27ZM67.25 27.64L67.25 24.95L64.77 26.29L67.25 27.64Z"></path><path id="Layer" fill-rule="evenodd" class="shp1" d="M63.3 31.24C63.27 31.24 63.24 31.24 63.2 31.24C63.17 31.23 63.13 31.23 63.1 31.22C63.06 31.21 63.03 31.2 63 31.19C62.97 31.17 62.94 31.16 62.9 31.14L58.76 28.9C58.7 28.87 58.64 28.82 58.59 28.78C58.54 28.73 58.5 28.67 58.46 28.61C58.43 28.55 58.4 28.49 58.38 28.42C58.36 28.35 58.35 28.29 58.35 28.22L58.35 24.38C58.35 24.31 58.36 24.24 58.38 24.17C58.4 24.1 58.43 24.04 58.46 23.98C58.5 23.92 58.54 23.87 58.59 23.82C58.64 23.77 58.7 23.73 58.76 23.7L62.9 21.46L62.92 21.45L62.94 21.44C63 21.41 63.06 21.39 63.13 21.37C63.19 21.36 63.26 21.35 63.33 21.35C63.39 21.36 63.46 21.37 63.52 21.38C63.59 21.4 63.65 21.43 63.71 21.46L63.73 21.47L67.83 23.69C67.89 23.72 67.95 23.77 68 23.81C68.05 23.86 68.09 23.92 68.13 23.98C68.16 24.03 68.19 24.1 68.21 24.17C68.23 24.23 68.24 24.3 68.24 24.37L68.24 28.23C68.24 28.3 68.23 28.36 68.21 28.43C68.19 28.5 68.16 28.56 68.13 28.62C68.09 28.68 68.05 28.73 68 28.78C67.95 28.83 67.89 28.87 67.83 28.9L63.69 31.14C63.66 31.16 63.63 31.17 63.6 31.18C63.57 31.2 63.54 31.21 63.5 31.22C63.47 31.22 63.44 31.23 63.41 31.24C63.37 31.24 63.34 31.24 63.3 31.24ZM63.09 22L59.03 24.19C59.01 24.2 59 24.21 58.98 24.23C58.97 24.24 58.95 24.25 58.94 24.27C58.93 24.29 58.93 24.3 58.92 24.32C58.92 24.34 58.91 24.36 58.91 24.38L58.91 28.22C58.91 28.24 58.92 28.25 58.92 28.27C58.93 28.29 58.93 28.31 58.94 28.33C58.95 28.34 58.97 28.36 58.98 28.37C59 28.38 59.01 28.4 59.03 28.4L63.18 30.65C63.2 30.66 63.22 30.67 63.24 30.67C63.26 30.68 63.28 30.68 63.3 30.68C63.33 30.68 63.35 30.68 63.37 30.67C63.39 30.67 63.41 30.66 63.43 30.65L67.57 28.41C67.59 28.4 67.6 28.39 67.62 28.38C67.63 28.36 67.64 28.35 67.65 28.33C67.66 28.32 67.67 28.3 67.67 28.28C67.68 28.26 67.68 28.24 67.68 28.22L67.68 24.37C67.68 24.35 67.68 24.33 67.67 24.31C67.67 24.3 67.66 24.28 67.65 24.26C67.64 24.25 67.63 24.23 67.62 24.22C67.6 24.21 67.59 24.19 67.57 24.19L63.44 21.95C63.42 21.94 63.4 21.93 63.38 21.93C63.35 21.92 63.33 21.91 63.3 21.91C63.28 21.91 63.25 21.92 63.23 21.93C63.21 21.93 63.18 21.94 63.16 21.95L63.09 22ZM63.3 30.57L59.07 28.27L62.58 26.37L63.2 26.71C63.21 26.72 63.23 26.73 63.25 26.73C63.27 26.73 63.29 26.74 63.3 26.74C63.32 26.74 63.34 26.73 63.36 26.73C63.38 26.73 63.4 26.72 63.41 26.71L64.03 26.37L67.54 28.27L63.3 30.57ZM60.24 28.27L63.3 29.93L66.37 28.27L64.03 27.01L63.68 27.2C63.62 27.23 63.56 27.26 63.5 27.27C63.43 27.29 63.37 27.3 63.3 27.3C63.24 27.3 63.17 27.29 63.11 27.27C63.05 27.26 62.98 27.23 62.93 27.2L62.57 27.01L60.24 28.27ZM59.06 28.12L59.06 24.47L62.43 26.3L59.06 28.12ZM59.62 25.41L59.62 27.19L61.26 26.3L59.62 25.41ZM67.53 28.11L64.18 26.3L67.53 24.48L67.53 28.11ZM65.35 26.3L66.97 27.17L66.97 25.42L65.35 26.3ZM63.31 26.62L59.07 24.32L63.31 22.03L67.54 24.32L63.31 26.62ZM60.24 24.32L63.31 25.98L66.37 24.32L63.31 22.67L60.24 24.32Z"></path></g><g id="Layer"><path id="Layer" class="shp1" d="M79.77 86.88C79.62 86.88 79.48 86.85 79.34 86.79C79.21 86.74 79.08 86.65 78.98 86.55C78.88 86.45 78.79 86.32 78.74 86.19C78.68 86.05 78.65 85.91 78.65 85.76L78.65 81.75C78.65 81.45 78.77 81.17 78.98 80.96C79.19 80.75 79.47 80.63 79.77 80.63C80.07 80.63 80.35 80.75 80.56 80.96C80.77 81.17 80.89 81.45 80.89 81.75L80.89 85.76C80.89 85.91 80.86 86.05 80.8 86.19C80.75 86.32 80.66 86.44 80.56 86.55C80.46 86.65 80.33 86.73 80.2 86.79C80.06 86.85 79.92 86.88 79.77 86.88L79.77 86.88Z"></path></g><g id="Layer"><path id="Layer" class="shp1" d="M83.62 86.88C83.48 86.88 83.33 86.85 83.19 86.79C83.06 86.73 82.94 86.65 82.83 86.55C82.73 86.44 82.65 86.32 82.59 86.19C82.53 86.05 82.51 85.91 82.5 85.76L82.5 81.75C82.51 81.45 82.62 81.17 82.83 80.96C83.04 80.75 83.33 80.63 83.62 80.63C83.92 80.63 84.2 80.75 84.41 80.96C84.62 81.17 84.74 81.45 84.74 81.75L84.74 85.76C84.74 85.91 84.71 86.05 84.65 86.19C84.6 86.32 84.52 86.44 84.41 86.55C84.31 86.65 84.18 86.73 84.05 86.79C83.91 86.85 83.77 86.88 83.62 86.88L83.62 86.88Z"></path></g><g id="Layer"><path id="Layer" class="shp1" d="M87.47 86.88C87.33 86.88 87.18 86.85 87.05 86.79C86.91 86.74 86.79 86.65 86.68 86.55C86.58 86.45 86.5 86.32 86.44 86.19C86.38 86.05 86.35 85.91 86.35 85.76L86.35 81.75C86.35 81.45 86.47 81.17 86.68 80.96C86.89 80.75 87.18 80.63 87.47 80.63C87.77 80.63 88.05 80.75 88.26 80.96C88.47 81.17 88.59 81.45 88.59 81.75L88.59 85.76C88.59 85.91 88.56 86.05 88.5 86.19C88.45 86.32 88.37 86.44 88.26 86.55C88.16 86.65 88.04 86.73 87.9 86.79C87.76 86.85 87.62 86.88 87.47 86.88L87.47 86.88Z"></path></g><g id="Layer"><path id="Layer" class="shp1" d="M91.32 86.88C91.18 86.88 91.03 86.85 90.9 86.79C90.76 86.74 90.64 86.65 90.53 86.55C90.43 86.45 90.35 86.32 90.29 86.19C90.23 86.05 90.2 85.91 90.2 85.76L90.2 81.75C90.2 81.45 90.32 81.17 90.53 80.96C90.74 80.75 91.03 80.63 91.32 80.63C91.62 80.63 91.9 80.75 92.11 80.96C92.32 81.17 92.44 81.45 92.44 81.75L92.44 85.76C92.44 85.91 92.41 86.05 92.35 86.19C92.3 86.32 92.22 86.44 92.11 86.55C92.01 86.65 91.89 86.73 91.75 86.79C91.61 86.85 91.47 86.88 91.32 86.88L91.32 86.88Z"></path></g><g id="Layer"><path id="Layer" class="shp1" d="M95.17 86.88C95.03 86.88 94.88 86.85 94.74 86.79C94.61 86.73 94.49 86.65 94.38 86.55C94.28 86.44 94.2 86.32 94.14 86.19C94.08 86.05 94.06 85.91 94.06 85.76L94.06 81.75C94.06 81.45 94.17 81.17 94.38 80.96C94.59 80.75 94.88 80.63 95.17 80.63C95.47 80.63 95.75 80.75 95.96 80.96C96.17 81.17 96.29 81.45 96.29 81.75L96.29 85.76C96.29 85.91 96.26 86.05 96.21 86.19C96.15 86.32 96.07 86.45 95.96 86.55C95.86 86.65 95.74 86.74 95.6 86.79C95.46 86.85 95.32 86.88 95.17 86.88L95.17 86.88Z"></path></g><g id="Layer"><path id="Layer" class="shp1" d="M99.02 86.88C98.88 86.88 98.73 86.85 98.6 86.79C98.46 86.73 98.34 86.65 98.23 86.55C98.13 86.44 98.05 86.32 97.99 86.19C97.94 86.05 97.91 85.91 97.91 85.76L97.91 81.75C97.91 81.45 98.03 81.17 98.24 80.96C98.44 80.75 98.73 80.63 99.02 80.63C99.32 80.63 99.61 80.75 99.81 80.96C100.02 81.17 100.14 81.45 100.14 81.75L100.14 85.76C100.14 85.91 100.11 86.05 100.06 86.19C100 86.32 99.92 86.45 99.81 86.55C99.71 86.65 99.59 86.74 99.45 86.79C99.31 86.85 99.17 86.88 99.02 86.88L99.02 86.88Z"></path></g></g></g></svg> 