<?xml version="1.0" encoding="UTF-8"?> <svg xmlns="http://www.w3.org/2000/svg" width="36" height="36" viewBox="0 0 36 36"><g transform="translate(77.681)"><path d="M-59.681,0a18,18,0,0,0-18,18,18,18,0,0,0,18,18,18,18,0,0,0,18-18A18,18,0,0,0-59.681,0Zm0,34a16.019,16.019,0,0,1-16-16,16.019,16.019,0,0,1,16-16,16.018,16.018,0,0,1,16,16A16.018,16.018,0,0,1-59.681,34Z"></path><path d="M-55.833,17.772a13.928,13.928,0,0,0-2.973-1,15.725,15.725,0,0,1-2.069-.666,2.745,2.745,0,0,1-1.05-.716,1.524,1.524,0,0,1-.325-1,1.552,1.552,0,0,1,.661-1.355,3.117,3.117,0,0,1,1.817-.461,3.069,3.069,0,0,1,1.757.48,1.8,1.8,0,0,1,.829,1.189.609.609,0,0,0,.609.4h1.994a.408.408,0,0,0,.315-.133.464.464,0,0,0,.126-.333,3.662,3.662,0,0,0-.556-1.692,4.771,4.771,0,0,0-1.492-1.523,5.605,5.605,0,0,0-2.343-.859V8.533a.545.545,0,0,0-.136-.389A.478.478,0,0,0-59.037,8h-1.3a.494.494,0,0,0-.357.143.517.517,0,0,0-.15.389v1.538a5.39,5.39,0,0,0-3.248,1.468,4.006,4.006,0,0,0-1.186,2.933A3.7,3.7,0,0,0-64.125,17.4a8.718,8.718,0,0,0,3.639,1.649q1.492.423,2.258.723a3.114,3.114,0,0,1,1.146.7,1.4,1.4,0,0,1,.378,1,1.66,1.66,0,0,1-.75,1.429,3.835,3.835,0,0,1-2.2.527,3.582,3.582,0,0,1-2.051-.515,2.364,2.364,0,0,1-.977-1.268,1.014,1.014,0,0,0-.262-.323.668.668,0,0,0-.389-.1h-1.89a.479.479,0,0,0-.462.462,3.906,3.906,0,0,0,.6,1.923,4.527,4.527,0,0,0,1.637,1.523,6.5,6.5,0,0,0,2.6.776v1.557a.5.5,0,0,0,.47.532h1.344a.479.479,0,0,0,.367-.143.538.538,0,0,0,.132-.39V25.91A6.065,6.065,0,0,0-55,24.463a4.037,4.037,0,0,0,1.314-3.132,4.017,4.017,0,0,0-.525-2.154A3.933,3.933,0,0,0-55.833,17.772Z"></path></g></svg> 