<?xml version="1.0" encoding="UTF-8"?> <svg xmlns="http://www.w3.org/2000/svg" width="36" height="36" viewBox="0 0 36 36"><defs><style>.a{fill:#101010;}</style></defs><g transform="translate(39.255)"><path d="M-21.255,0a18,18,0,0,0-18,18,18,18,0,0,0,18,18,18,18,0,0,0,18-18A18,18,0,0,0-21.255,0Zm0,34a16.018,16.018,0,0,1-16-16,16.018,16.018,0,0,1,16-16,16.019,16.019,0,0,1,16,16A16.019,16.019,0,0,1-21.255,34Z"></path><path class="a" d="M-23.715,20.46l.753,7.733,9.9-18.385-18.385,9.9Z"></path></g></svg> 