<?xml version="1.0" encoding="UTF-8"?> <svg xmlns="http://www.w3.org/2000/svg" width="36" height="36" viewBox="0 0 36 36"><path d="M18,0A18,18,0,1,0,36,18,18,18,0,0,0,18,0Zm0,34A16,16,0,1,1,34,18,16.019,16.019,0,0,1,18,34Z"></path><circle cx="1.379" cy="1.379" r="1.379" transform="translate(14.306 17.568)"></circle><circle cx="1.379" cy="1.379" r="1.379" transform="translate(18.936 17.568)"></circle><path d="M25.855,15.7h-.467a7.388,7.388,0,0,0-14.776,0h-.467A2.312,2.312,0,0,0,7.83,18.011v2.783a2.315,2.315,0,0,0,4.629-.025V15.7a5.541,5.541,0,1,1,11.082,0v7.388a1.861,1.861,0,0,1-1.847,1.847H19.6a1.837,1.837,0,0,0-3.177,1.846,1.85,1.85,0,0,0,2.512.665,1.907,1.907,0,0,0,.665-.665h2.093a3.688,3.688,0,0,0,3.694-3.693h.467a2.312,2.312,0,0,0,2.315-2.315V18.011A2.312,2.312,0,0,0,25.855,15.7ZM10.612,20.769a.464.464,0,0,1-.492.419.45.45,0,0,1-.419-.419V18.011H9.677a.468.468,0,0,1,.468-.468h.467Zm15.711.025a.467.467,0,0,1-.468.467h-.467V17.543h.467a.467.467,0,0,1,.468.468Z"></path></svg> 